<?xml version="1.0" encoding="UTF-8"?> <svg xmlns="http://www.w3.org/2000/svg" xmlns:xlink="http://www.w3.org/1999/xlink" width="262px" height="64px" viewBox="0 0 262 64" version="1.1"><!-- Generator: Sketch 64 (93537) - https://sketch.com --><title>Rouberto-logo-horizontal-white</title><desc>Created with Sketch.</desc><g id="Rouberto-logo-horizontal-white" stroke="none" stroke-width="1" fill="none" fill-rule="evenodd"><g id="Group-2" transform="translate(3.850000, 3.500000)"><polygon id="Fill-1" fill="#A04E26" points="36.0695474 34.663462 11.4735457 34.6651035 11.4735457 45.1763316 36.0695474 45.1749246"></polygon><path d="M66.625437,54.4525888 C65.440274,53.5209203 60.615202,43.8707762 60.615202,43.8707762 C60.6656195,43.9718457 59.699714,41.9947762 59.186628,41.0040137 C57.7259275,38.1829787 54.0121509,35.0104282 50.1185129,33.8250307 C48.5103119,33.4012892 46.6479129,33.1477947 44.6157359,32.9784857 L44.2771178,32.9784857 L44.1926978,32.9784857 C50.7108599,32.5556822 54.9433504,31.1158521 58.1602215,28.7457606 C64.763038,24.0060466 65.6942375,14.229507 61.377327,7.62622146 C60.445893,6.35663845 59.430039,5.25659894 58.2451105,4.32493043 C53.1660749,0.431292403 45.6318244,0.00778540006 39.3678603,0.00778540006 L37.1115013,0.00778540006 L37.1115013,1.36249191 L39.3678603,1.36249191 C51.0494779,1.36249191 53.5872369,20.0303336 47.7334134,26.8692916 C45.3356509,29.6703941 43.5356288,31.2295846 39.3678603,31.7937917 L37.1115013,31.9185457 L37.1115013,33.6953522 C43.0858578,36.1573677 45.8008989,44.4631233 45.8008989,44.4631233 C47.4098034,47.8495378 48.7638064,51.4050268 51.7267139,53.9441928 C54.6898559,56.3994078 58.583494,56.7377913 62.3080575,56.8222113 C64.42442,56.8222113 66.625437,56.7377913 68.8262195,56.7377913 L71.1118911,56.7377913 L71.1118911,56.1456788 C71.1118911,56.0605553 68.4027125,56.0605553 66.625437,54.4525888" id="Fill-2" fill="#FFFFFF"></path><path d="M20.9136247,5.25636444 L20.9136247,10.5138545 L23.2506517,10.5133855 L23.2506517,0.00801990006 L15.7499347,0.00801990006 L15.7499347,0.600601405 C15.7499347,0.600601405 20.9136247,0.0926744007 20.9136247,5.25636444" id="Fill-4" fill="#FFFFFF"></path><polygon id="Fill-6" fill="#A04E26" points="0 56.8043424 23.2504407 56.8043424 23.2504407 46.2931144 0 46.2931144"></polygon><polygon id="Fill-8" fill="#A04E26" points="1.66622273e-15 33.6957743 23.2504407 33.6957743 23.2504407 23.1845462 1.66622273e-15 23.1845462"></polygon><polygon id="Fill-9" fill="#A04E26" points="24.2925587 10.5114626 36.0696178 10.5114626 36.0696178 -1.99946727e-14 24.2925587 -1.99946727e-14"></polygon><polygon id="Fill-10" fill="#A04E26" points="24.2925587 33.6957743 36.0696178 33.6957743 36.0696178 23.1845462 24.2925587 23.1845462"></polygon><polygon id="Fill-11" fill="#A04E26" points="24.2925587 56.8043424 36.0696178 56.8043424 36.0696178 46.2931144 24.2925587 46.2931144"></polygon><polygon id="Fill-12" fill="#A04E26" points="11.4734988 22.1422171 36.0695005 22.1412791 36.0695005 11.629582 11.4734988 11.6307545"></polygon><path d="M1.60904521,53.2395672 L1.60904521,53.2086132 C1.60904521,53.2086132 1.87543721,53.2395672 1.87543721,52.9640297 L1.87543721,52.6800502 L1.87543721,51.0362052 L1.87543721,50.5564182 C1.87543721,50.2808807 1.60904521,50.3162902 1.60904521,50.3162902 L1.60904521,50.2808807 L3.97233623,50.2808807 L3.97233623,50.9431087 L3.92801573,50.9431087 C3.92801573,50.3029237 3.54601523,50.3519342 3.54601523,50.3519342 L2.58175122,50.3519342 L2.58175122,51.7380637 L3.12414972,51.7380637 C3.19520323,51.7293872 3.37717523,51.6801422 3.37717523,51.3023627 L3.42149573,51.3023627 L3.42149573,52.2401282 L3.37717523,52.2401282 C3.37717523,51.8621142 3.19520323,51.8133382 3.12414972,51.8088827 L2.58175122,51.8088827 L2.58175122,53.1682792 L3.63934623,53.1682792 C3.63934623,53.1682792 4.01736023,53.2175242 4.01736023,52.5773392 L4.06566723,52.5773392 L4.06566723,53.2395672 L1.60904521,53.2395672 Z" id="Fill-13" fill="#FEFEFE"></path><path d="M5.00619984,53.0575014 C4.95742384,53.0265474 4.90864784,52.9859789 4.85541634,52.9730814 C4.77076184,52.9461139 4.74871884,53.0129464 4.73980784,53.0797789 C4.73558684,53.0929109 4.72644134,53.2436944 4.72644134,53.2436944 L4.69079734,53.2392389 L4.69079734,52.5019709 L4.72644134,52.5019709 L4.76654084,52.6492369 C4.82868334,52.8173734 4.94382284,52.9461139 5.09507534,53.0436659 C5.15721784,53.0839999 5.22827134,53.1198784 5.29486934,53.1463769 C5.53007284,53.2436944 5.83679885,53.2528399 6.03213735,53.0661779 C6.13906935,52.9644049 6.19230085,52.8307399 6.19230085,52.6618999 C6.19230085,52.5641134 6.16111235,52.4754724 6.09920435,52.3994944 C6.04151735,52.3244544 5.96577385,52.2573874 5.87689835,52.1999349 C5.79271285,52.1427169 5.66842784,52.0709599 5.51271984,51.9823189 C5.31714684,51.8800769 5.15721784,51.7825249 5.03293284,51.6981049 C4.91286884,51.6136849 4.81086134,51.5072219 4.72644134,51.3827024 C4.64202134,51.2539619 4.59770084,51.1029439 4.59770084,50.9294139 C4.59770084,50.7959834 4.63756584,50.6714639 4.71776484,50.5607799 C4.79772934,50.4540824 4.91755884,50.3656759 5.08194334,50.2983744 L5.19731734,50.2585094 C5.36615734,50.2141889 5.54367384,50.1916769 5.71673485,50.2008224 C5.95264185,50.2141889 6.16111235,50.3119754 6.36114085,50.4364949 C6.42328335,50.4761254 6.48589485,50.5298259 6.55671385,50.5471789 C6.63667835,50.5739119 6.65895585,50.5033274 6.66763235,50.4407159 C6.67208785,50.4273494 6.68076435,50.2765659 6.68076435,50.2765659 L6.72109835,50.2765659 L6.72109835,51.0180549 L6.68076435,51.0180549 L6.62800185,50.8318619 C6.60079985,50.7741749 6.56562485,50.7117979 6.52998085,50.6627874 C6.45869285,50.5739119 6.36559635,50.5033274 6.26804435,50.4451714 C6.14821485,50.3783389 6.01478435,50.3295629 5.88135385,50.3030644 C5.73057035,50.2676549 5.56595134,50.2941534 5.45503284,50.4095274 C5.37037834,50.5033274 5.32605784,50.6184669 5.32605784,50.7603394 C5.32605784,50.8670369 5.35701184,50.9697479 5.42384434,51.0536989 C5.49067684,51.1381189 5.57064134,51.2136279 5.66842784,51.2806949 C5.76175885,51.3426029 5.89026485,51.4185809 6.05019385,51.5072219 C6.24131135,51.6092294 6.39232935,51.6981049 6.50770335,51.7776004 C6.62331185,51.8580339 6.72109835,51.9560549 6.80106285,52.0709599 C6.88079285,52.1863339 6.91667135,52.3197644 6.91667135,52.4705479 C6.91667135,52.6175794 6.87188185,52.7594519 6.78324085,52.8797504 C6.69459985,53.0040354 6.55671385,53.1013529 6.37474185,53.1775654 C6.32573135,53.1953874 6.27695535,53.2085194 6.22794485,53.2216514 C6.05464935,53.2704274 5.87267735,53.2924704 5.69047084,53.2880149 C5.44190084,53.2795729 5.21068384,53.1953874 5.00619984,53.0575014" id="Fill-14" fill="#FEFEFE"></path><path d="M8.02986631,53.2395672 L8.02986631,53.2086132 C8.02986631,53.2086132 8.13234281,53.2175242 8.20761731,53.1638237 L8.21230731,53.1638237 C8.21676281,53.1596027 8.22543931,53.1553817 8.23012931,53.1509262 C8.23012931,53.1464707 8.23481931,53.1464707 8.23481931,53.1464707 L8.24771681,53.1284142 L8.25662782,53.1197377 C8.26108332,53.1152822 8.26108332,53.1105922 8.26577332,53.1016812 L8.27444982,53.0930047 C8.27444982,53.0838592 8.27913982,53.0796382 8.27913982,53.0749482 C8.28312632,53.0665062 8.28312632,53.0620507 8.28758182,53.0578297 L8.29250632,53.0395387 C8.29250632,53.0308622 8.29672732,53.0219512 8.29672732,53.0174957 L8.29672732,52.9952182 C8.29672732,52.9863072 8.30118282,52.9769272 8.30118282,52.9640297 L8.30118282,52.6800502 L8.30118282,51.8088827 L8.30118282,51.7380637 L8.30118282,51.0362052 L8.30118282,50.5564182 C8.30118282,50.4452652 8.25662782,50.3873437 8.20339631,50.3519342 L7.79911831,50.3519342 C7.79911831,50.3519342 7.41688331,50.3029237 7.41688331,50.9431087 L7.37256281,50.9431087 L7.37256281,50.2808807 L9.93166133,50.2808807 L9.93166133,50.9431087 L9.88710633,50.9431087 C9.88710633,50.3029237 9.50487132,50.3519342 9.50487132,50.3519342 L9.10082782,50.3519342 C9.04736182,50.3873437 9.00304132,50.4452652 9.00304132,50.5564182 L9.00304132,52.9640297 C9.00304132,52.9769272 9.00773132,52.9863072 9.00773132,52.9952182 L9.00773132,53.0174957 C9.00773132,53.0219512 9.01171782,53.0308622 9.01171782,53.0395387 C9.01640782,53.0439942 9.01640782,53.0529052 9.01640782,53.0578297 C9.02062882,53.0620507 9.02062882,53.0665062 9.02555332,53.0749482 C9.02555332,53.0796382 9.02977432,53.0838592 9.02977432,53.0930047 L9.03868532,53.1016812 C9.04290632,53.1105922 9.04290632,53.1152822 9.04736182,53.1197377 L9.05650732,53.1284142 C9.06072832,53.1326352 9.06541832,53.1415462 9.06963932,53.1464707 C9.06963932,53.1464707 9.07386032,53.1464707 9.07386032,53.1509262 L9.09168232,53.1638237 L9.09637232,53.1638237 C9.17188132,53.2175242 9.27412332,53.2086132 9.27412332,53.2086132 L9.27412332,53.2395672 L8.02986631,53.2395672 Z" id="Fill-15" fill="#FEFEFE"></path><path d="M10.2148904,53.1596496 C10.1572034,53.0972726 10.1262494,53.0306746 10.1262494,52.9507101 C10.1262494,52.8712146 10.1572034,52.8039131 10.2148904,52.7422396 C10.2772674,52.6843181 10.3438654,52.6531296 10.4235954,52.6531296 C10.5035599,52.6531296 10.5706269,52.6843181 10.6325349,52.7422396 C10.6902219,52.8039131 10.7214104,52.8712146 10.7214104,52.9507101 C10.7214104,53.0306746 10.6902219,53.0972726 10.6325349,53.1596496 C10.5706269,53.2175711 10.5035599,53.2485251 10.4235954,53.2485251 C10.3438654,53.2485251 10.2772674,53.2175711 10.2148904,53.1596496" id="Fill-16" fill="#FEFEFE"></path><path d="M13.1105434,53.2395672 L11.8667553,53.2395672 L11.8667553,53.2086132 C11.8667553,53.2086132 12.1331473,53.2395672 12.1331473,52.9640297 L12.1331473,52.7907342 L12.1331473,52.3508122 C12.1331473,51.9779572 12.1289263,51.5073157 12.1289263,51.1342262 C12.1289263,51.1342262 12.1331473,51.1342262 12.1331473,51.1379782 L12.1331473,50.6054287 L11.7781143,50.8317212 L11.7558368,50.8002982 L12.5550128,50.2895572 L12.8394614,50.2895572 L12.8394614,51.5115367 L12.8394614,52.6575382 L12.8394614,52.9640297 C12.8394614,53.2395672 13.1105434,53.2086132 13.1105434,53.2086132 L13.1105434,53.2395672 Z" id="Fill-17" fill="#FEFEFE"></path><path d="M15.1311595,51.769135 C15.206903,51.6535265 15.2423125,51.542608 15.2423125,51.298259 C15.2423125,50.9336115 15.2019785,50.6714404 15.1180275,50.5164359 C15.0331385,50.3562724 14.8202125,50.2720869 14.6917065,50.2720869 C14.6288605,50.2720869 14.562497,50.3030409 14.500589,50.3654179 C14.4426675,50.4228704 14.3892015,50.5206569 14.3535575,50.6493974 C14.3136925,50.778138 14.2916495,50.9472125 14.2916495,51.1470065 C14.2916495,51.2586285 14.3000915,51.3735335 14.3226035,51.4807 C14.3582475,51.6671275 14.4515785,51.870908 14.6513725,51.933285 C14.797935,51.98253 15.042284,51.9110075 15.1311595,51.769135 M14.309237,53.2617275 C14.1758065,53.2303045 14.0430795,53.1726175 13.9361475,53.079521 C13.8207735,52.973058 13.7626175,52.8621395 13.7804395,52.7373855 C13.7804395,52.73293 13.7851295,52.7284745 13.7851295,52.7242535 L13.7851295,52.7200325 C13.807407,52.5511925 13.963115,52.431363 14.1312515,52.453406 C14.2958705,52.4794355 14.4159345,52.631157 14.393657,52.799997 C14.371614,52.968837 14.2203615,53.0839765 14.0515215,53.062168 C14.0918555,53.101564 14.0918555,53.101564 14.1181195,53.119855 C14.149308,53.141898 14.1851865,53.1594855 14.2203615,53.1726175 C14.278283,53.195364 14.33597,53.2129515 14.393657,53.2265525 C14.5847745,53.2617275 14.8113015,53.24883 14.9712305,53.1238415 C15.0645615,53.048567 15.139836,52.9062255 15.1888465,52.701976 C15.2423125,52.5019475 15.2643555,52.1464455 15.2643555,51.782267 L15.2643555,51.725049 L15.2329325,51.7735905 C15.1841565,51.8448785 15.1002055,51.9156975 15.0200065,51.9560315 C14.92691,52.004573 14.8066115,52.035527 14.700383,52.0446725 C14.3226035,52.080082 13.953735,51.9644735 13.731429,51.649071 C13.473948,51.2848925 13.5764245,50.6894969 13.9183255,50.4270914 C14.1270305,50.2720869 14.433522,50.2230764 14.6917065,50.2230764 C15.0598715,50.2230764 15.4646185,50.3520514 15.673089,50.6008559 C15.886484,50.854116 15.9931815,51.244793 15.9931815,51.769135 C15.9931815,52.275655 15.877104,52.662111 15.646356,52.9198265 C15.5931245,52.9770445 15.5307475,53.030745 15.473295,53.079521 C15.3576865,53.163941 15.2291805,53.2213935 15.09575,53.257272 C14.9444975,53.3015925 14.7803475,53.315428 14.6246395,53.3109725 C14.517942,53.306517 14.4112445,53.288226 14.309237,53.2617275" id="Fill-18" fill="#FEFEFE"></path><path d="M17.9995401,53.1726878 C18.0616826,53.1152353 18.1106931,53.0219043 18.1503236,52.8884738 C18.1906576,52.7594988 18.2129351,52.5913623 18.2129351,52.3913338 C18.2129351,52.2794773 18.2040241,52.1692623 18.1812776,52.0578748 C18.1461026,51.8709783 18.0485506,51.6716533 17.8529776,51.6050553 C17.7017251,51.5602658 17.4620661,51.6313193 17.3729561,51.7692053 C17.2976816,51.8850483 17.2620376,51.9952633 17.2620376,52.2443023 C17.2620376,52.6040253 17.3019026,52.8713553 17.3860881,53.0263598 C17.4707426,53.1867578 17.6843721,53.2660188 17.8126436,53.2660188 C17.8754896,53.2660188 17.9416186,53.2350648 17.9995401,53.1726878 M16.8314956,52.9374843 C16.6178661,52.6842243 16.5111686,52.2933128 16.5111686,51.7731918 C16.5111686,51.2671408 16.6267771,50.8762293 16.8575251,50.6185138 C16.9114601,50.5608268 16.9686781,50.5075953 17.0312896,50.4630403 C17.1422081,50.3783858 17.2751696,50.3164778 17.4086001,50.2810683 C17.5596181,50.2365133 17.7240026,50.2233813 17.8794761,50.2318233 C17.9864081,50.2318233 18.0928711,50.2498798 18.1948786,50.2766128 C18.3283091,50.3075668 18.4615051,50.3652538 18.5637471,50.4585848 C18.6835766,50.5655168 18.7368081,50.6806563 18.7236761,50.8004858 C18.7194551,50.8049413 18.7194551,50.8096313 18.7194551,50.8140868 L18.7194551,50.8227633 C18.6969431,50.9869133 18.5414696,51.1069773 18.3726296,51.0849343 C18.2040241,51.0626568 18.0881811,50.9074178 18.1106931,50.7383433 C18.1329706,50.5739588 18.2839886,50.4541293 18.4481386,50.4764068 C18.4127291,50.4363073 18.4127291,50.4363073 18.3859961,50.4184853 C18.3501176,50.3964423 18.3191636,50.3783858 18.2792986,50.3652538 C18.2260671,50.3434453 18.1683801,50.3251543 18.1062376,50.3164778 C17.9195756,50.2810683 17.6885931,50.2942003 17.5328851,50.4140298 C17.4350986,50.4939943 17.3640451,50.6316458 17.3110481,50.8358953 C17.2620376,51.0361583 17.2399946,51.3914258 17.2399946,51.7558388 L17.2399946,51.8182158 L17.2709486,51.7692053 C17.3199591,51.6934618 17.4041446,51.6224083 17.4798881,51.5827778 C17.5774401,51.5337673 17.6975041,51.5023443 17.7995116,51.4934333 C18.1812776,51.4580238 18.5506151,51.5780878 18.7679966,51.8890348 C19.0257121,52.2529788 18.9281601,52.8481398 18.5860246,53.1105453 C18.3770851,53.2707088 18.0659036,53.3152638 17.8126436,53.3152638 C17.4397886,53.3152638 17.0399661,53.1867578 16.8314956,52.9374843" id="Fill-19" fill="#FEFEFE"></path><path d="M19.571206,53.0620742 C19.4555975,52.9551422 19.4021315,52.8400027 19.415498,52.7199387 C19.415498,52.7152487 19.420188,52.7112622 19.420188,52.7061032 L19.420188,52.6971922 C19.442231,52.5330422 19.597939,52.4129782 19.7665445,52.4354902 C19.930929,52.4580022 20.0507585,52.6132412 20.0287155,52.7820812 C20.006438,52.9462312 19.8556545,53.0665297 19.6863455,53.0440177 C19.726914,53.0841172 19.726914,53.0841172 19.7529435,53.1017047 C20.0240255,53.2754692 20.5305455,53.2705447 20.743706,53.0393277 C20.859549,52.9152772 20.916767,52.7281462 20.916767,52.4798107 C20.916767,52.2310062 20.859549,52.0359022 20.748396,51.9066927 C20.637243,51.7777177 20.4817695,51.6982222 20.290652,51.6982222 L20.0864025,51.6982222 L20.0864025,51.6581227 L20.290652,51.6581227 C20.433228,51.6581227 20.548602,51.5821447 20.641933,51.4667707 C20.7350295,51.3471757 20.77935,51.1781012 20.77935,50.9651752 C20.77935,50.8362002 20.7528515,50.6804921 20.703841,50.5606626 C20.5572785,50.2187616 20.0198045,50.2143061 19.7529435,50.4056581 C19.726914,50.4227766 19.726914,50.4227766 19.6863455,50.4633451 C19.8556545,50.4405986 20.006438,50.5606626 20.0287155,50.7248126 C20.0507585,50.8938872 19.930929,51.0491262 19.7665445,51.0721072 C19.597939,51.0936812 19.442231,50.9740862 19.420188,50.8094672 L19.420188,50.8003217 C19.420188,50.7958662 19.415498,50.7918797 19.415498,50.7874242 C19.4021315,50.6673601 19.451142,50.5517516 19.571206,50.4452886 C19.6643025,50.3653241 19.7754555,50.3076371 19.8908295,50.2675376 C19.957662,50.2452601 20.0240255,50.2274381 20.090858,50.2187616 C20.233434,50.2007051 20.3842175,50.2007051 20.5305455,50.2143061 C20.703841,50.2274381 20.859549,50.2628476 20.992745,50.3165481 C21.1613505,50.3826771 21.294781,50.4764771 21.379201,50.5871611 C21.463621,50.7025351 21.508176,50.8272892 21.508176,50.9651752 C21.508176,51.1206487 21.4680765,51.2446992 21.383422,51.3380302 C21.2992365,51.4313612 21.1880835,51.5073392 21.050432,51.5603362 C20.913015,51.6135677 20.4995915,51.6759447 20.4995915,51.6759447 C20.579556,51.6843867 20.659286,51.7026777 20.739485,51.7158097 C20.859549,51.7380872 20.9882895,51.7688067 21.112809,51.8178172 C21.4014785,51.9292047 21.6411375,52.1196187 21.6411375,52.4798107 C21.6411375,52.7241597 21.53444,52.9241882 21.3259695,53.0702817 C21.134852,53.2037122 20.850638,53.2796902 20.477314,53.2923532 C20.348339,53.3014987 19.8556545,53.3108787 19.571206,53.0620742" id="Fill-20" fill="#FEFEFE"></path></g><path d="M93.4107984,28.3735195 C95.0053984,28.3735195 95.6938484,27.7939195 96.6724484,26.6340195 C99.2452983,23.5897196 98.4115983,15.9796697 93.4107984,15.9796697 L91.2726484,15.9796697 L91.2726484,28.3735195 L93.4107984,28.3735195 Z M107.000248,39.4265193 L107.000248,39.6802693 L106.021648,39.6802693 C105.079798,39.6802693 104.137598,39.7163193 103.231798,39.7163193 C101.636848,39.6802693 99.9697983,39.5353693 98.7020983,38.4843193 C97.4336983,37.3972194 96.8533984,35.8747194 96.1652984,34.4257194 C96.1652984,34.4257194 94.8240984,29.5330695 91.8525984,28.9534695 L91.2726484,28.9534695 L91.2726484,37.2887194 C91.2726484,39.5353693 93.4468484,39.2452193 93.4468484,39.2452193 L93.4468484,39.5353693 L83.2999986,39.5353693 L83.2999986,39.2452193 C83.2999986,39.2452193 85.5105985,39.5353693 85.5105985,37.2887194 L85.5105985,17.6467197 C85.5105985,15.4361197 83.2999986,15.6538197 83.2999986,15.6538197 L83.2999986,15.4000697 L93.4107984,15.4000697 C96.0928484,15.4000697 99.3177483,15.5810197 101.491948,17.2480697 C101.999448,17.6467197 102.434148,18.1178197 102.833148,18.6613697 C104.681148,21.4879696 104.282848,25.0401196 101.455898,27.0690695 C100.078648,28.0837195 98.2670483,28.6993695 95.4764984,28.8810195 L95.5128984,28.8810195 L95.6577984,28.8810195 C96.5275484,28.9534695 97.3248483,29.0623195 98.0132983,29.2425695 C99.6806983,29.7507695 100.804198,30.6205195 101.383098,31.8889195 L102.506598,34.1716194 C102.506598,34.1716194 104.572298,38.3030193 105.079798,38.7020193 C105.841048,39.3901193 107.000248,39.3901193 107.000248,39.4265193 L107.000248,39.4265193 Z" id="Fill-21" fill="#FFFFFF"></path><path d="M119.360708,38.9920993 C120.194058,38.1947993 120.882858,36.8903494 121.426408,35.0783994 C121.969608,33.3024994 122.260108,30.9109495 122.260108,28.0115495 C122.260108,25.1124996 121.969608,22.7205996 121.426408,20.9086496 C120.882858,19.0966997 120.194058,17.7918997 119.360708,16.9945997 C118.527358,16.2340497 117.295008,15.8350497 116.317108,15.8350497 C115.338508,15.8350497 114.106158,16.2340497 113.272808,16.9945997 C112.439108,17.7918997 111.750658,19.0966997 111.206758,20.9086496 C110.663208,22.7205996 110.373408,25.0757496 110.373408,28.0115495 C110.373408,30.9109495 110.663208,33.3024994 111.206758,35.0783994 C111.750658,36.8903494 112.439108,38.1947993 113.272808,38.9920993 C114.106158,39.7893993 115.338508,40.1883993 116.317108,40.1883993 C117.295008,40.1883993 118.527358,39.7893993 119.360708,38.9920993 M109.830208,39.1369993 C108.053958,38.1587494 106.677058,36.7086994 105.734508,34.8249994 C104.756608,32.9762994 104.284808,30.6571995 104.284808,28.0115495 C104.284808,25.3301996 104.756608,23.0464496 105.734508,21.1627496 C106.677058,19.2779997 108.053958,17.8643497 109.830208,16.8860997 C111.569358,15.9074997 113.961258,15.4003497 116.317108,15.4003497 C118.672258,15.4003497 121.064158,15.9074997 122.803308,16.8860997 C124.579208,17.8643497 125.956458,19.2779997 126.934708,21.1627496 C127.876908,23.0464496 128.384058,25.3301996 128.384058,28.0115495 C128.384058,30.6571995 127.876908,32.9762994 126.934708,34.8249994 C125.956458,36.7086994 124.579208,38.1587494 122.803308,39.1369993 C121.064158,40.0791993 118.672258,40.5866993 116.317108,40.5866993 C113.961258,40.5866993 111.569358,40.0791993 109.830208,39.1369993" id="Fill-22" fill="#FFFFFF"></path><path d="M132.312913,37.6512494 C130.500963,36.0926994 129.558413,33.8099994 129.558413,30.9466495 L129.558413,17.6469997 C129.558413,15.3999997 127.384563,15.6540997 127.384563,15.6540997 L127.384563,15.3999997 L137.531413,15.3999997 L137.531413,15.6540997 C137.531413,15.6540997 135.320813,15.3999997 135.320813,17.6469997 L135.320813,30.9466495 C135.320813,33.9545494 135.827963,36.1651494 136.806563,37.4699494 C137.821213,38.7750993 139.270563,39.4631993 141.155663,39.4631993 C142.314863,39.4631993 143.402313,39.1009493 144.453013,38.4121493 C145.467663,37.7240494 146.301363,36.7090494 146.953412,35.4042494 C147.569412,34.1361994 147.896312,32.6504494 147.896312,30.9466495 L147.896312,17.8650497 C147.896312,15.4360497 144.960513,15.6540997 144.960513,15.6540997 L144.960513,15.3999997 L151.374962,15.3999997 L151.374962,15.6908497 C151.374962,15.6908497 148.692912,15.3999997 148.692912,17.8650497 L148.692912,30.9466495 C148.692912,32.7953494 148.331012,34.4259994 147.605812,35.8032494 C146.881312,37.1437494 145.902363,38.2308493 144.670363,38.9560493 C143.438363,39.6805493 141.989013,40.0427993 140.430113,40.0427993 C136.842613,40.0427993 134.124863,39.2458493 132.312913,37.6512494" id="Fill-23" fill="#FFFFFF"></path><path d="M158.923027,26.5612895 L158.923027,38.9554893 L161.459827,38.9554893 C163.018377,38.9554893 164.286777,38.4119393 165.265377,37.3608894 C166.243627,36.3101894 166.751477,34.8604894 166.751477,33.0481894 C166.751477,31.2362395 166.243627,29.2076395 165.265377,28.1562395 C164.286777,27.1055395 163.018377,26.5612895 161.459827,26.5612895 L158.923027,26.5612895 Z M158.923027,15.9800897 L158.923027,25.9820396 L160.734977,25.9820396 C161.350977,25.9820396 162.076527,25.8367896 162.656127,25.6558396 C163.561927,25.3292896 164.250727,24.7496896 164.721827,23.9884396 C165.228977,23.2282396 165.445977,22.3220896 165.445977,21.3791896 C165.445977,20.3284897 165.228977,19.3859397 164.794277,18.5896897 C164.359227,17.7559897 163.779627,17.1389397 163.054427,16.6681897 C162.329577,16.2334897 161.568677,15.9800897 160.734977,15.9800897 L158.923027,15.9800897 Z M150.986777,39.5354393 L150.986777,39.2816893 C150.986777,39.2816893 153.197727,39.5354393 153.197727,37.8683894 L153.197727,17.0668397 C153.197727,15.4001397 150.986777,15.6895897 150.986777,15.6895897 L150.986777,15.4001397 L160.734977,15.4001397 C161.821727,15.4001397 162.909527,15.4365397 163.996627,15.5807397 C165.554827,15.7623897 167.439227,16.1606897 168.816477,17.1032397 C170.519577,18.2627897 171.245127,20.6546896 170.447127,22.5026896 C169.541327,24.6775896 167.222227,25.5473396 165.084077,25.9452896 C164.939177,25.9820396 164.758227,26.0177396 164.613327,26.0177396 C164.105477,26.1269396 163.597977,26.1626396 163.090827,26.1997396 C162.981977,26.2354396 162.873127,26.2354396 162.764277,26.2354396 C162.692527,26.2354396 162.656127,26.2718396 162.619727,26.2718396 C163.815327,26.4524395 165.192927,26.5612895 166.352127,26.8157395 C169.287927,27.4681395 172.657727,29.5695395 172.657727,33.0481894 C172.657727,35.0774894 171.788327,36.6727894 170.048477,37.7959394 C168.309327,38.9554893 165.409927,39.5354393 161.459827,39.5354393 L150.986777,39.5354393 Z" id="Fill-24" fill="#FFFFFF"></path><path d="M172.911407,39.5355793 L172.911407,39.2814793 C172.911407,39.2814793 175.085607,39.5355793 175.085607,37.2885794 L175.085607,34.9694794 L175.085607,21.5602796 L175.085607,17.6472797 C175.085607,15.4002797 172.911407,15.6900797 172.911407,15.6900797 L172.911407,15.4002797 L192.190457,15.4002797 L192.190457,20.7997296 L191.828207,20.7997296 C191.828207,15.5812297 188.711807,15.9795297 188.711807,15.9795297 L180.847657,15.9795297 L180.847657,27.2866295 L185.268857,27.2866295 C185.848807,27.2141795 187.334557,26.8158795 187.334557,23.7348296 L187.696807,23.7348296 L187.696807,31.3812795 L187.334557,31.3812795 C187.334557,28.3005795 185.848807,27.9029795 185.268857,27.8662295 L180.847657,27.8662295 L180.847657,38.9556293 L189.472707,38.9556293 C189.472707,38.9556293 192.553057,39.3539293 192.553057,34.1361294 L192.951707,34.1361294 L192.951707,39.5355793 L172.911407,39.5355793 Z" id="Fill-25" fill="#FFFFFF"></path><path d="M203.787252,28.3735195 C205.381852,28.3735195 206.070301,27.7939195 207.049251,26.6340195 C209.622451,23.5897196 208.788051,15.9796697 203.787252,15.9796697 L201.649102,15.9796697 L201.649102,28.3735195 L203.787252,28.3735195 Z M217.376701,39.4265193 L217.376701,39.6802693 L216.398451,39.6802693 C215.455901,39.6802693 214.514051,39.7163193 213.608251,39.7163193 C212.013651,39.6802693 210.346251,39.5353693 209.078551,38.4843193 C207.810151,37.3972194 207.229851,35.8747194 206.541751,34.4257194 C206.541751,34.4257194 205.200552,29.5330695 202.229402,28.9534695 L201.649102,28.9534695 L201.649102,37.2887194 C201.649102,39.5353693 203.823302,39.2452193 203.823302,39.2452193 L203.823302,39.5353693 L193.676452,39.5353693 L193.676452,39.2452193 C193.676452,39.2452193 195.887052,39.5353693 195.887052,37.2887194 L195.887052,17.6467197 C195.887052,15.4361197 193.676452,15.6538197 193.676452,15.6538197 L193.676452,15.4000697 L203.787252,15.4000697 C206.468951,15.4000697 209.694201,15.5810197 211.868751,17.2480697 C212.375901,17.6467197 212.810951,18.1178197 213.209601,18.6613697 C215.057951,21.4879696 214.659301,25.0401196 211.832351,27.0690695 C210.455101,28.0837195 208.643151,28.6993695 205.852601,28.8810195 L205.889351,28.8810195 L206.034251,28.8810195 C206.904001,28.9534695 207.701301,29.0623195 208.389751,29.2425695 C210.057151,29.7507695 211.179951,30.6205195 211.760251,31.8889195 L212.883051,34.1716194 C212.883051,34.1716194 214.949101,38.3030193 215.455901,38.7020193 C216.217501,39.3901193 217.376701,39.3901193 217.376701,39.4265193 L217.376701,39.4265193 Z" id="Fill-26" fill="#FFFFFF"></path><path d="M220.540771,39.5355793 L220.540771,39.2814793 C220.540771,39.2814793 221.373771,39.3539293 221.989771,38.9195793 L222.025821,38.9195793 C222.062571,38.8831793 222.134671,38.8467793 222.171071,38.8107293 C222.171071,38.7746793 222.207121,38.7746793 222.207121,38.7746793 L222.316321,38.6297793 C222.352721,38.5933793 222.352721,38.5933793 222.388771,38.5573293 C222.424821,38.5209293 222.424821,38.4848793 222.461571,38.4120793 L222.533671,38.3389293 C222.533671,38.2668293 222.570071,38.2304293 222.570071,38.1943793 C222.606471,38.1219294 222.606471,38.0855294 222.642521,38.0494794 L222.678921,37.9042294 C222.678921,37.8321294 222.714971,37.7593294 222.714971,37.7236294 L222.714971,37.5423294 C222.714971,37.4695294 222.751371,37.3974294 222.751371,37.2885794 L222.751371,34.9694794 L222.751371,27.8662295 L222.751371,27.2866295 L222.751371,21.5602796 L222.751371,17.6472797 C222.751371,16.7407797 222.388771,16.2693297 221.953721,15.9795297 L218.656021,15.9795297 C218.656021,15.9795297 215.539971,15.5812297 215.539971,20.7997296 L215.177021,20.7997296 L215.177021,15.4002797 L236.051021,15.4002797 L236.051021,20.7997296 L235.688071,20.7997296 C235.688071,15.5812297 232.572021,15.9795297 232.572021,15.9795297 L229.274321,15.9795297 C228.838921,16.2693297 228.477021,16.7407797 228.477021,17.6472797 L228.477021,37.2885794 C228.477021,37.3974294 228.512721,37.4695294 228.512721,37.5423294 L228.512721,37.7236294 C228.512721,37.7593294 228.549471,37.8321294 228.549471,37.9042294 C228.585521,37.9406294 228.585521,38.0127294 228.585521,38.0494794 C228.621571,38.0855294 228.621571,38.1219294 228.657971,38.1943793 C228.657971,38.2304293 228.694371,38.2668293 228.694371,38.3389293 L228.766821,38.4120793 C228.802871,38.4848793 228.802871,38.5209293 228.838921,38.5573293 L228.911721,38.6297793 C228.947771,38.6661793 228.984521,38.7382793 229.020221,38.7746793 C229.020221,38.7746793 229.056271,38.7746793 229.056271,38.8107293 L229.201521,38.9195793 L229.238271,38.9195793 C229.854271,39.3539293 230.687621,39.2814793 230.687621,39.2814793 L230.687621,39.5355793 L220.540771,39.5355793 Z" id="Fill-27" fill="#FFFFFF"></path><path d="M248.594461,38.9920993 C249.427811,38.1947993 250.116961,36.8903494 250.660511,35.0783994 C251.204061,33.3024994 251.493511,30.9109495 251.493511,28.0115495 C251.493511,25.1124996 251.204061,22.7205996 250.660511,20.9086496 C250.116961,19.0966997 249.427811,17.7918997 248.594461,16.9945997 C247.761461,16.2340497 246.528761,15.8350497 245.550511,15.8350497 C244.572261,15.8350497 243.339911,16.2340497 242.505861,16.9945997 C241.673211,17.7918997 240.984411,19.0966997 240.440861,20.9086496 C239.896611,22.7205996 239.607161,25.0757496 239.607161,28.0115495 C239.607161,30.9109495 239.896611,33.3024994 240.440861,35.0783994 C240.984411,36.8903494 241.673211,38.1947993 242.505861,38.9920993 C243.339911,39.7893993 244.572261,40.1883993 245.550511,40.1883993 C246.528761,40.1883993 247.761461,39.7893993 248.594461,38.9920993 M239.063961,39.1369993 C237.288061,38.1587494 235.911161,36.7086994 234.968961,34.8249994 C233.990361,32.9762994 233.518911,30.6571995 233.518911,28.0115495 C233.518911,25.3301996 233.990361,23.0464496 234.968961,21.1627496 C235.911161,19.2779997 237.288061,17.8643497 239.063961,16.8860997 C240.803461,15.9074997 243.195361,15.4003497 245.550511,15.4003497 C247.906011,15.4003497 250.297911,15.9074997 252.037761,16.8860997 C253.812961,17.8643497 255.190211,19.2779997 256.168461,21.1627496 C257.110661,23.0464496 257.618161,25.3301996 257.618161,28.0115495 C257.618161,30.6571995 257.110661,32.9762994 256.168461,34.8249994 C255.190211,36.7086994 253.812961,38.1587494 252.037761,39.1369993 C250.297911,40.0791993 247.906011,40.5866993 245.550511,40.5866993 C243.195361,40.5866993 240.803461,40.0791993 239.063961,39.1369993" id="Fill-28" fill="#FFFFFF"></path><path d="M88.2105335,48.1635342 C88.9392335,48.1635342 89.3837335,47.6283842 89.3837335,46.9455342 C89.3837335,46.2500842 88.9392335,45.7716342 88.2105335,45.7716342 L86.6726335,45.7716342 L86.6726335,48.1635342 L88.2105335,48.1635342 Z M88.3928835,51.6264341 C89.0876335,51.6264341 89.6224335,51.0912841 89.6224335,50.3846341 C89.6224335,49.6898842 88.9619835,49.1886842 88.2213835,49.1886842 L86.6614335,49.1886842 L86.6614335,51.6264341 L88.3928835,51.6264341 Z M85.5106335,44.9172842 C85.5106335,44.8031842 85.6019835,44.7006342 85.7269335,44.7006342 L88.2784335,44.7006342 C89.6567335,44.7006342 90.6479335,45.6120342 90.6479335,46.8076342 C90.6479335,47.6850842 89.9986835,48.3122842 89.4635335,48.6195842 C90.0672835,48.8701842 90.8873335,49.4280842 90.8873335,50.4759841 C90.8873335,51.7517341 89.8394335,52.6743341 88.4037335,52.6743341 L85.7269335,52.6743341 C85.6019835,52.6743341 85.5106335,52.5717841 85.5106335,52.4583841 L85.5106335,44.9172842 Z" id="Fill-29" fill="#FFFFFF"></path><path d="M95.9120734,44.9171442 C95.9120734,44.8033942 96.0146234,44.7004942 96.1283734,44.7004942 L96.8913733,44.7004942 C97.0170233,44.7004942 97.1083733,44.8033942 97.1083733,44.9171442 L97.1083733,49.6214942 C97.1083733,50.7607441 97.8370733,51.6493941 98.9987233,51.6493941 C100.172623,51.6493941 100.912173,50.7722941 100.912173,49.6445942 L100.912173,44.9171442 C100.912173,44.8033942 101.003173,44.7004942 101.128823,44.7004942 L101.892173,44.7004942 C102.005923,44.7004942 102.108123,44.8033942 102.108123,44.9171442 L102.108123,49.7016442 C102.108123,51.4330941 100.798773,52.7879441 98.9987233,52.7879441 C97.2102233,52.7879441 95.9120734,51.4330941 95.9120734,49.7016442 L95.9120734,44.9171442 Z" id="Fill-30" fill="#FFFFFF"></path><path d="M107.635008,44.9171442 C107.635008,44.8033942 107.737208,44.7004942 107.850958,44.7004942 L108.603108,44.7004942 C108.716508,44.7004942 108.819408,44.8033942 108.819408,44.9171442 L108.819408,52.4578941 C108.819408,52.5719941 108.716508,52.6745441 108.603108,52.6745441 L107.850958,52.6745441 C107.737208,52.6745441 107.635008,52.5719941 107.635008,52.4578941 L107.635008,44.9171442 Z" id="Fill-31" fill="#FFFFFF"></path><path d="M114.447723,44.9171442 C114.447723,44.8033942 114.538723,44.7004942 114.663673,44.7004942 L115.415823,44.7004942 C115.529573,44.7004942 115.632123,44.8033942 115.632123,44.9171442 L115.632123,51.6147441 L118.719123,51.6147441 C118.844423,51.6147441 118.935773,51.7176441 118.935773,51.8317441 L118.935773,52.4578941 C118.935773,52.5719941 118.844423,52.6745441 118.719123,52.6745441 L114.663673,52.6745441 C114.538723,52.6745441 114.447723,52.5719941 114.447723,52.4578941 L114.447723,44.9171442 Z" id="Fill-32" fill="#FFFFFF"></path><path d="M126.215108,51.5924491 C127.889158,51.5924491 129.108558,50.3614991 129.108558,48.6769492 C129.108558,47.0018492 127.889158,45.7827992 126.215108,45.7827992 L124.711158,45.7827992 L124.711158,51.5924491 L126.215108,51.5924491 Z M123.549508,44.9168992 C123.549508,44.8031492 123.640858,44.7005992 123.754608,44.7005992 L126.374708,44.7005992 C128.572708,44.7005992 130.372408,46.4894492 130.372408,48.6769492 C130.372408,50.8857991 128.572708,52.6742991 126.374708,52.6742991 L123.754608,52.6742991 C123.640858,52.6742991 123.549508,52.5717491 123.549508,52.4579991 L123.549508,44.9168992 Z" id="Fill-33" fill="#FFFFFF"></path><path d="M135.432673,44.9171442 C135.432673,44.8033942 135.534873,44.7004942 135.648973,44.7004942 L136.400773,44.7004942 C136.514173,44.7004942 136.617073,44.8033942 136.617073,44.9171442 L136.617073,52.4578941 C136.617073,52.5719941 136.514173,52.6745441 136.400773,52.6745441 L135.648973,52.6745441 C135.534873,52.6745441 135.432673,52.5719941 135.432673,52.4578941 L135.432673,44.9171442 Z" id="Fill-34" fill="#FFFFFF"></path><path d="M142.244863,44.7920542 C142.244863,44.6783042 142.347063,44.5869542 142.460813,44.5869542 L142.745363,44.5869542 L147.689462,50.3049041 L147.700662,50.3049041 L147.700662,44.9173542 C147.700662,44.8029042 147.791662,44.7003542 147.917312,44.7003542 L148.646012,44.7003542 C148.759762,44.7003542 148.862662,44.8029042 148.862662,44.9173542 L148.862662,52.5834041 C148.862662,52.6968041 148.759762,52.7881541 148.646012,52.7881541 L148.349912,52.7881541 L143.406163,46.9109542 L143.394963,46.9109542 L143.394963,52.4577541 C143.394963,52.5718541 143.303613,52.6747541 143.179013,52.6747541 L142.460813,52.6747541 C142.347063,52.6747541 142.244863,52.5718541 142.244863,52.4577541 L142.244863,44.7920542 Z" id="Fill-35" fill="#FFFFFF"></path><path d="M157.555997,44.5869892 C158.649747,44.5869892 159.548897,44.9856392 160.324147,45.6457392 C160.415497,45.7370892 160.426347,45.8739392 160.334997,45.9652892 C160.164197,46.1476392 159.993397,46.3180892 159.822247,46.5004392 C159.731597,46.6033392 159.640597,46.5917892 159.526147,46.4892392 C158.990997,46.0219892 158.284697,45.7146892 157.589947,45.7146892 C155.972247,45.7146892 154.730797,47.0814392 154.730797,48.6763892 C154.730797,50.2597891 155.972247,51.6261891 157.589947,51.6261891 C158.534947,51.6261891 159.184897,51.2845891 159.298297,51.2390891 L159.298297,49.9633391 L158.182147,49.9633391 C158.056497,49.9633391 157.965847,49.8723392 157.965847,49.7585892 L157.965847,49.0977892 C157.965847,48.9721392 158.056497,48.8814892 158.182147,48.8814892 L160.255897,48.8814892 C160.369297,48.8814892 160.460297,48.9840392 160.460297,49.0977892 C160.460297,50.0091891 160.471497,50.9433391 160.471497,51.8543891 C160.471497,51.9110891 160.426347,52.0020891 160.380847,52.0363891 C160.380847,52.0363891 159.207297,52.7878391 157.555997,52.7878391 C155.288697,52.7878391 153.455047,50.9772891 153.455047,48.6991392 C153.455047,46.4206392 155.288697,44.5869892 157.555997,44.5869892" id="Fill-36" fill="#FFFFFF"></path><path d="M171.329057,44.7578942 C171.351807,44.6668942 171.442807,44.5874442 171.534157,44.5874442 L171.716157,44.5874442 C171.784757,44.5874442 171.887307,44.6441442 171.910407,44.7120442 L174.290757,50.5325441 L174.336257,50.5325441 L176.705407,44.7120442 C176.728157,44.6441442 176.819157,44.5874442 176.899657,44.5874442 L177.081307,44.5874442 C177.172657,44.5874442 177.264007,44.6668942 177.286757,44.7578942 L178.687807,52.4127441 C178.721757,52.5716441 178.641607,52.6745441 178.482357,52.6745441 L177.742457,52.6745441 C177.639207,52.6745441 177.548557,52.5950941 177.525807,52.5149441 L176.682657,47.4231442 L176.648707,47.4231442 L174.598407,52.6629941 C174.575307,52.7312441 174.506707,52.7879441 174.404857,52.7879441 L174.199757,52.7879441 C174.108757,52.7879441 174.028957,52.7312441 174.006207,52.6629941 L171.944357,47.4231442 L171.898157,47.4231442 L171.078457,52.5149441 C171.067257,52.5950941 170.964357,52.6745441 170.873357,52.6745441 L170.132757,52.6745441 C169.973857,52.6745441 169.894057,52.5716441 169.916807,52.4127441 L171.329057,44.7578942 Z" id="Fill-37" fill="#FFFFFF"></path><path d="M187.870652,49.9630941 L186.469602,46.8424942 L186.412552,46.8424942 L185.023402,49.9630941 L187.870652,49.9630941 Z M182.710952,52.3780941 L186.207802,44.7116942 C186.241752,44.6437942 186.343952,44.5870942 186.401002,44.5870942 L186.515452,44.5870942 C186.572502,44.5870942 186.674352,44.6437942 186.708652,44.7116942 L190.183102,52.3780941 C190.251702,52.5264941 190.160352,52.6741941 189.989202,52.6741941 L189.271702,52.6741941 C189.134852,52.6741941 189.055052,52.6059441 189.009552,52.5040941 L188.303602,50.9434441 L184.578552,50.9434441 C184.351052,51.4670441 184.112002,51.9797941 183.884152,52.5040941 C183.849502,52.5831941 183.758502,52.6741941 183.622002,52.6741941 L182.904502,52.6741941 C182.733702,52.6741941 182.642352,52.5264941 182.710952,52.3780941 L182.710952,52.3780941 Z" id="Fill-38" fill="#FFFFFF"></path><path d="M195.413082,45.7716342 L193.556332,45.7716342 C193.431032,45.7716342 193.339682,45.6694342 193.339682,45.5549842 L193.339682,44.9172842 C193.339682,44.8028342 193.431032,44.7002842 193.556332,44.7002842 L198.454232,44.7002842 C198.579532,44.7002842 198.670532,44.8028342 198.670532,44.9172842 L198.670532,45.5549842 C198.670532,45.6694342 198.579532,45.7716342 198.454232,45.7716342 L196.597482,45.7716342 L196.597482,52.4580341 C196.597482,52.5717841 196.494932,52.6746841 196.381532,52.6746841 L195.629382,52.6746841 C195.515282,52.6746841 195.413082,52.5717841 195.413082,52.4580341 L195.413082,45.7716342 Z" id="Fill-39" fill="#FFFFFF"></path><path d="M203.319687,44.9171442 C203.319687,44.8033942 203.410687,44.7004942 203.535637,44.7004942 L208.091586,44.7004942 C208.216886,44.7004942 208.308586,44.8033942 208.308586,44.9171442 L208.308586,45.5551942 C208.308586,45.6692942 208.216886,45.7714942 208.091586,45.7714942 L204.492887,45.7714942 L204.492887,48.0951442 L207.534036,48.0951442 C207.647786,48.0951442 207.750686,48.1976942 207.750686,48.3121442 L207.750686,48.9498442 C207.750686,49.0744442 207.647786,49.1661442 207.534036,49.1661442 L204.492887,49.1661442 L204.492887,51.6147441 L208.091586,51.6147441 C208.216886,51.6147441 208.308586,51.7176441 208.308586,51.8317441 L208.308586,52.4578941 C208.308586,52.5719941 208.216886,52.6745441 208.091586,52.6745441 L203.535637,52.6745441 C203.410687,52.6745441 203.319687,52.5719941 203.319687,52.4578941 L203.319687,44.9171442 Z" id="Fill-40" fill="#FFFFFF"></path><path d="M216.670611,48.5736992 C217.411561,48.5736992 218.060811,47.9475492 218.060811,47.1617992 C218.060811,46.4208492 217.411561,45.8055492 216.670611,45.8055492 L214.643411,45.8055492 L214.643411,48.5736992 L216.670611,48.5736992 Z M213.447461,44.9172492 C213.447461,44.8027992 213.538811,44.7005992 213.664111,44.7005992 L216.762661,44.7005992 C218.128711,44.7005992 219.245211,45.7824492 219.245211,47.1383492 C219.245211,48.1865992 218.550811,49.0521492 217.559261,49.4507992 L219.119911,52.3442491 C219.199361,52.4922991 219.119911,52.6746491 218.926011,52.6746491 L218.038061,52.6746491 C217.946711,52.6746491 217.878461,52.6175991 217.855711,52.5720991 L216.340561,49.5536992 L214.620661,49.5536992 L214.620661,52.4579991 C214.620661,52.5720991 214.517761,52.6746491 214.404361,52.6746491 L213.664111,52.6746491 C213.538811,52.6746491 213.447461,52.5720991 213.447461,52.4579991 L213.447461,44.9172492 Z" id="Fill-41" fill="#FFFFFF"></path><path d="M224.441031,44.9171442 C224.441031,44.8033942 224.543231,44.7004942 224.657681,44.7004942 L225.409481,44.7004942 C225.522881,44.7004942 225.625431,44.8033942 225.625431,44.9171442 L225.625431,52.4578941 C225.625431,52.5719941 225.522881,52.6745441 225.409481,52.6745441 L224.657681,52.6745441 C224.543231,52.6745441 224.441031,52.5719941 224.441031,52.4578941 L224.441031,44.9171442 Z" id="Fill-42" fill="#FFFFFF"></path><path d="M235.342656,49.9630941 L233.941606,46.8424942 L233.884556,46.8424942 L232.495056,49.9630941 L235.342656,49.9630941 Z M230.182606,52.3780941 L233.679456,44.7116942 C233.713756,44.6437942 233.815956,44.5870942 233.873006,44.5870942 L233.986756,44.5870942 C234.044156,44.5870942 234.146006,44.6437942 234.180656,44.7116942 L237.654756,52.3780941 C237.723706,52.5264941 237.632006,52.6741941 237.461206,52.6741941 L236.743706,52.6741941 C236.606856,52.6741941 236.527056,52.6059441 236.482256,52.5040941 L235.775256,50.9434441 L232.050206,50.9434441 C231.822706,51.4670441 231.583656,51.9797941 231.355106,52.5040941 C231.321506,52.5831941 231.230506,52.6741941 231.094006,52.6741941 L230.376156,52.6741941 C230.205706,52.6741941 230.114006,52.5264941 230.182606,52.3780941 L230.182606,52.3780941 Z" id="Fill-43" fill="#FFFFFF"></path><path d="M242.213086,44.9171442 C242.213086,44.8033942 242.304086,44.7004942 242.429736,44.7004942 L243.181536,44.7004942 C243.294936,44.7004942 243.397836,44.8033942 243.397836,44.9171442 L243.397836,51.6147441 L246.484486,51.6147441 C246.610136,51.6147441 246.701136,51.7176441 246.701136,51.8317441 L246.701136,52.4578941 C246.701136,52.5719941 246.610136,52.6745441 246.484486,52.6745441 L242.429736,52.6745441 C242.304086,52.6745441 242.213086,52.5719941 242.213086,52.4578941 L242.213086,44.9171442 Z" id="Fill-44" fill="#FFFFFF"></path><path d="M250.803486,51.5237441 C250.905686,51.3753441 250.996686,51.2048941 251.099236,51.0568441 C251.201086,50.9084441 251.361386,50.8636441 251.486336,50.9654941 C251.554586,51.0225441 252.431686,51.7512441 253.309136,51.7512441 C254.094886,51.7512441 254.596086,51.2731441 254.596086,50.6924941 C254.596086,50.0096441 254.003886,49.5759942 252.876186,49.1090942 C251.714536,48.6194442 250.803486,48.0153442 250.803486,46.6940942 C250.803486,45.8054442 251.486336,44.5870942 253.297586,44.5870942 C254.436486,44.5870942 255.291186,45.1792942 255.404586,45.2590942 C255.496286,45.3161442 255.587286,45.4757442 255.473536,45.6458442 C255.382186,45.7830442 255.279286,45.9426442 255.188286,46.0787942 C255.097636,46.2271942 254.949236,46.2954442 254.789636,46.1928942 C254.710186,46.1477442 253.912186,45.6234442 253.252086,45.6234442 C252.295186,45.6234442 251.964786,46.2271942 251.964786,46.6482442 C251.964786,47.2981942 252.466336,47.6968442 253.411686,48.0842942 C254.732586,48.6194442 255.860636,49.2455942 255.860636,50.6357941 C255.860636,51.8201941 254.801536,52.7879441 253.320336,52.7879441 C251.930836,52.7879441 251.053736,52.0588941 250.871036,51.8887941 C250.769186,51.7970941 250.689386,51.7179941 250.803486,51.5237441" id="Fill-45" fill="#FFFFFF"></path></g></svg> 