<?xml version="1.0" encoding="UTF-8"?> <svg xmlns="http://www.w3.org/2000/svg" xmlns:xlink="http://www.w3.org/1999/xlink" width="262px" height="64px" viewBox="0 0 262 64" version="1.1"><!-- Generator: Sketch 64 (93537) - https://sketch.com --><title>Rouberto-logo-horizontal-2</title><desc>Created with Sketch.</desc><g id="Rouberto-logo-horizontal-2" stroke="none" stroke-width="1" fill="none" fill-rule="evenodd"><g id="Group-3" transform="translate(3.850000, 3.500000)"><g id="Group-2"><polygon id="Fill-1" fill="#A04E26" points="36.0695474 34.663462 11.4735457 34.6651035 11.4735457 45.1763316 36.0695474 45.1749246"></polygon><path d="M66.625437,54.4525888 C65.440274,53.5209203 60.615202,43.8707762 60.615202,43.8707762 C60.6656195,43.9718457 59.699714,41.9947762 59.186628,41.0040137 C57.7259275,38.1829787 54.0121509,35.0104282 50.1185129,33.8250307 C48.5103119,33.4012892 46.6479129,33.1477947 44.6157359,32.9784857 L44.2771178,32.9784857 L44.1926978,32.9784857 C50.7108599,32.5556822 54.9433504,31.1158521 58.1602215,28.7457606 C64.763038,24.0060466 65.6942375,14.229507 61.377327,7.62622146 C60.445893,6.35663845 59.430039,5.25659894 58.2451105,4.32493043 C53.1660749,0.431292403 45.6318244,0.00778540006 39.3678603,0.00778540006 L37.1115013,0.00778540006 L37.1115013,1.36249191 L39.3678603,1.36249191 C51.0494779,1.36249191 53.5872369,20.0303336 47.7334134,26.8692916 C45.3356509,29.6703941 43.5356288,31.2295846 39.3678603,31.7937917 L37.1115013,31.9185457 L37.1115013,33.6953522 C43.0858578,36.1573677 45.8008989,44.4631233 45.8008989,44.4631233 C47.4098034,47.8495378 48.7638064,51.4050268 51.7267139,53.9441928 C54.6898559,56.3994078 58.583494,56.7377913 62.3080575,56.8222113 C64.42442,56.8222113 66.625437,56.7377913 68.8262195,56.7377913 L71.1118911,56.7377913 L71.1118911,56.1456788 C71.1118911,56.0605553 68.4027125,56.0605553 66.625437,54.4525888" id="Fill-2" fill="#39383A"></path><path d="M20.9136247,5.25636444 L20.9136247,10.5138545 L23.2506517,10.5133855 L23.2506517,0.00801990006 L15.7499347,0.00801990006 L15.7499347,0.600601405 C15.7499347,0.600601405 20.9136247,0.0926744007 20.9136247,5.25636444" id="Fill-4" fill="#39383A"></path><polygon id="Fill-6" fill="#A04E26" points="0 56.8043424 23.2504407 56.8043424 23.2504407 46.2931144 0 46.2931144"></polygon><polygon id="Fill-8" fill="#A04E26" points="1.66622273e-15 33.6957743 23.2504407 33.6957743 23.2504407 23.1845462 1.66622273e-15 23.1845462"></polygon><polygon id="Fill-9" fill="#A04E26" points="24.2925587 10.5114626 36.0696178 10.5114626 36.0696178 -1.99946727e-14 24.2925587 -1.99946727e-14"></polygon><polygon id="Fill-10" fill="#A04E26" points="24.2925587 33.6957743 36.0696178 33.6957743 36.0696178 23.1845462 24.2925587 23.1845462"></polygon><polygon id="Fill-11" fill="#A04E26" points="24.2925587 56.8043424 36.0696178 56.8043424 36.0696178 46.2931144 24.2925587 46.2931144"></polygon><polygon id="Fill-12" fill="#A04E26" points="11.4734988 22.1422171 36.0695005 22.1412791 36.0695005 11.629582 11.4734988 11.6307545"></polygon><path d="M1.60904521,53.2395672 L1.60904521,53.2086132 C1.60904521,53.2086132 1.87543721,53.2395672 1.87543721,52.9640297 L1.87543721,52.6800502 L1.87543721,51.0362052 L1.87543721,50.5564182 C1.87543721,50.2808807 1.60904521,50.3162902 1.60904521,50.3162902 L1.60904521,50.2808807 L3.97233623,50.2808807 L3.97233623,50.9431087 L3.92801573,50.9431087 C3.92801573,50.3029237 3.54601523,50.3519342 3.54601523,50.3519342 L2.58175122,50.3519342 L2.58175122,51.7380637 L3.12414972,51.7380637 C3.19520323,51.7293872 3.37717523,51.6801422 3.37717523,51.3023627 L3.42149573,51.3023627 L3.42149573,52.2401282 L3.37717523,52.2401282 C3.37717523,51.8621142 3.19520323,51.8133382 3.12414972,51.8088827 L2.58175122,51.8088827 L2.58175122,53.1682792 L3.63934623,53.1682792 C3.63934623,53.1682792 4.01736023,53.2175242 4.01736023,52.5773392 L4.06566723,52.5773392 L4.06566723,53.2395672 L1.60904521,53.2395672 Z" id="Fill-13" fill="#FEFEFE"></path><path d="M5.00619984,53.0575014 C4.95742384,53.0265474 4.90864784,52.9859789 4.85541634,52.9730814 C4.77076184,52.9461139 4.74871884,53.0129464 4.73980784,53.0797789 C4.73558684,53.0929109 4.72644134,53.2436944 4.72644134,53.2436944 L4.69079734,53.2392389 L4.69079734,52.5019709 L4.72644134,52.5019709 L4.76654084,52.6492369 C4.82868334,52.8173734 4.94382284,52.9461139 5.09507534,53.0436659 C5.15721784,53.0839999 5.22827134,53.1198784 5.29486934,53.1463769 C5.53007284,53.2436944 5.83679885,53.2528399 6.03213735,53.0661779 C6.13906935,52.9644049 6.19230085,52.8307399 6.19230085,52.6618999 C6.19230085,52.5641134 6.16111235,52.4754724 6.09920435,52.3994944 C6.04151735,52.3244544 5.96577385,52.2573874 5.87689835,52.1999349 C5.79271285,52.1427169 5.66842784,52.0709599 5.51271984,51.9823189 C5.31714684,51.8800769 5.15721784,51.7825249 5.03293284,51.6981049 C4.91286884,51.6136849 4.81086134,51.5072219 4.72644134,51.3827024 C4.64202134,51.2539619 4.59770084,51.1029439 4.59770084,50.9294139 C4.59770084,50.7959834 4.63756584,50.6714639 4.71776484,50.5607799 C4.79772934,50.4540824 4.91755884,50.3656759 5.08194334,50.2983744 L5.19731734,50.2585094 C5.36615734,50.2141889 5.54367384,50.1916769 5.71673485,50.2008224 C5.95264185,50.2141889 6.16111235,50.3119754 6.36114085,50.4364949 C6.42328335,50.4761254 6.48589485,50.5298259 6.55671385,50.5471789 C6.63667835,50.5739119 6.65895585,50.5033274 6.66763235,50.4407159 C6.67208785,50.4273494 6.68076435,50.2765659 6.68076435,50.2765659 L6.72109835,50.2765659 L6.72109835,51.0180549 L6.68076435,51.0180549 L6.62800185,50.8318619 C6.60079985,50.7741749 6.56562485,50.7117979 6.52998085,50.6627874 C6.45869285,50.5739119 6.36559635,50.5033274 6.26804435,50.4451714 C6.14821485,50.3783389 6.01478435,50.3295629 5.88135385,50.3030644 C5.73057035,50.2676549 5.56595134,50.2941534 5.45503284,50.4095274 C5.37037834,50.5033274 5.32605784,50.6184669 5.32605784,50.7603394 C5.32605784,50.8670369 5.35701184,50.9697479 5.42384434,51.0536989 C5.49067684,51.1381189 5.57064134,51.2136279 5.66842784,51.2806949 C5.76175885,51.3426029 5.89026485,51.4185809 6.05019385,51.5072219 C6.24131135,51.6092294 6.39232935,51.6981049 6.50770335,51.7776004 C6.62331185,51.8580339 6.72109835,51.9560549 6.80106285,52.0709599 C6.88079285,52.1863339 6.91667135,52.3197644 6.91667135,52.4705479 C6.91667135,52.6175794 6.87188185,52.7594519 6.78324085,52.8797504 C6.69459985,53.0040354 6.55671385,53.1013529 6.37474185,53.1775654 C6.32573135,53.1953874 6.27695535,53.2085194 6.22794485,53.2216514 C6.05464935,53.2704274 5.87267735,53.2924704 5.69047084,53.2880149 C5.44190084,53.2795729 5.21068384,53.1953874 5.00619984,53.0575014" id="Fill-14" fill="#FEFEFE"></path><path d="M8.02986631,53.2395672 L8.02986631,53.2086132 C8.02986631,53.2086132 8.13234281,53.2175242 8.20761731,53.1638237 L8.21230731,53.1638237 C8.21676281,53.1596027 8.22543931,53.1553817 8.23012931,53.1509262 C8.23012931,53.1464707 8.23481931,53.1464707 8.23481931,53.1464707 L8.24771681,53.1284142 L8.25662782,53.1197377 C8.26108332,53.1152822 8.26108332,53.1105922 8.26577332,53.1016812 L8.27444982,53.0930047 C8.27444982,53.0838592 8.27913982,53.0796382 8.27913982,53.0749482 C8.28312632,53.0665062 8.28312632,53.0620507 8.28758182,53.0578297 L8.29250632,53.0395387 C8.29250632,53.0308622 8.29672732,53.0219512 8.29672732,53.0174957 L8.29672732,52.9952182 C8.29672732,52.9863072 8.30118282,52.9769272 8.30118282,52.9640297 L8.30118282,52.6800502 L8.30118282,51.8088827 L8.30118282,51.7380637 L8.30118282,51.0362052 L8.30118282,50.5564182 C8.30118282,50.4452652 8.25662782,50.3873437 8.20339631,50.3519342 L7.79911831,50.3519342 C7.79911831,50.3519342 7.41688331,50.3029237 7.41688331,50.9431087 L7.37256281,50.9431087 L7.37256281,50.2808807 L9.93166133,50.2808807 L9.93166133,50.9431087 L9.88710633,50.9431087 C9.88710633,50.3029237 9.50487132,50.3519342 9.50487132,50.3519342 L9.10082782,50.3519342 C9.04736182,50.3873437 9.00304132,50.4452652 9.00304132,50.5564182 L9.00304132,52.9640297 C9.00304132,52.9769272 9.00773132,52.9863072 9.00773132,52.9952182 L9.00773132,53.0174957 C9.00773132,53.0219512 9.01171782,53.0308622 9.01171782,53.0395387 C9.01640782,53.0439942 9.01640782,53.0529052 9.01640782,53.0578297 C9.02062882,53.0620507 9.02062882,53.0665062 9.02555332,53.0749482 C9.02555332,53.0796382 9.02977432,53.0838592 9.02977432,53.0930047 L9.03868532,53.1016812 C9.04290632,53.1105922 9.04290632,53.1152822 9.04736182,53.1197377 L9.05650732,53.1284142 C9.06072832,53.1326352 9.06541832,53.1415462 9.06963932,53.1464707 C9.06963932,53.1464707 9.07386032,53.1464707 9.07386032,53.1509262 L9.09168232,53.1638237 L9.09637232,53.1638237 C9.17188132,53.2175242 9.27412332,53.2086132 9.27412332,53.2086132 L9.27412332,53.2395672 L8.02986631,53.2395672 Z" id="Fill-15" fill="#FEFEFE"></path><path d="M10.2148904,53.1596496 C10.1572034,53.0972726 10.1262494,53.0306746 10.1262494,52.9507101 C10.1262494,52.8712146 10.1572034,52.8039131 10.2148904,52.7422396 C10.2772674,52.6843181 10.3438654,52.6531296 10.4235954,52.6531296 C10.5035599,52.6531296 10.5706269,52.6843181 10.6325349,52.7422396 C10.6902219,52.8039131 10.7214104,52.8712146 10.7214104,52.9507101 C10.7214104,53.0306746 10.6902219,53.0972726 10.6325349,53.1596496 C10.5706269,53.2175711 10.5035599,53.2485251 10.4235954,53.2485251 C10.3438654,53.2485251 10.2772674,53.2175711 10.2148904,53.1596496" id="Fill-16" fill="#FEFEFE"></path><path d="M13.1105434,53.2395672 L11.8667553,53.2395672 L11.8667553,53.2086132 C11.8667553,53.2086132 12.1331473,53.2395672 12.1331473,52.9640297 L12.1331473,52.7907342 L12.1331473,52.3508122 C12.1331473,51.9779572 12.1289263,51.5073157 12.1289263,51.1342262 C12.1289263,51.1342262 12.1331473,51.1342262 12.1331473,51.1379782 L12.1331473,50.6054287 L11.7781143,50.8317212 L11.7558368,50.8002982 L12.5550128,50.2895572 L12.8394614,50.2895572 L12.8394614,51.5115367 L12.8394614,52.6575382 L12.8394614,52.9640297 C12.8394614,53.2395672 13.1105434,53.2086132 13.1105434,53.2086132 L13.1105434,53.2395672 Z" id="Fill-17" fill="#FEFEFE"></path><path d="M15.1311595,51.769135 C15.206903,51.6535265 15.2423125,51.542608 15.2423125,51.298259 C15.2423125,50.9336115 15.2019785,50.6714404 15.1180275,50.5164359 C15.0331385,50.3562724 14.8202125,50.2720869 14.6917065,50.2720869 C14.6288605,50.2720869 14.562497,50.3030409 14.500589,50.3654179 C14.4426675,50.4228704 14.3892015,50.5206569 14.3535575,50.6493974 C14.3136925,50.778138 14.2916495,50.9472125 14.2916495,51.1470065 C14.2916495,51.2586285 14.3000915,51.3735335 14.3226035,51.4807 C14.3582475,51.6671275 14.4515785,51.870908 14.6513725,51.933285 C14.797935,51.98253 15.042284,51.9110075 15.1311595,51.769135 M14.309237,53.2617275 C14.1758065,53.2303045 14.0430795,53.1726175 13.9361475,53.079521 C13.8207735,52.973058 13.7626175,52.8621395 13.7804395,52.7373855 C13.7804395,52.73293 13.7851295,52.7284745 13.7851295,52.7242535 L13.7851295,52.7200325 C13.807407,52.5511925 13.963115,52.431363 14.1312515,52.453406 C14.2958705,52.4794355 14.4159345,52.631157 14.393657,52.799997 C14.371614,52.968837 14.2203615,53.0839765 14.0515215,53.062168 C14.0918555,53.101564 14.0918555,53.101564 14.1181195,53.119855 C14.149308,53.141898 14.1851865,53.1594855 14.2203615,53.1726175 C14.278283,53.195364 14.33597,53.2129515 14.393657,53.2265525 C14.5847745,53.2617275 14.8113015,53.24883 14.9712305,53.1238415 C15.0645615,53.048567 15.139836,52.9062255 15.1888465,52.701976 C15.2423125,52.5019475 15.2643555,52.1464455 15.2643555,51.782267 L15.2643555,51.725049 L15.2329325,51.7735905 C15.1841565,51.8448785 15.1002055,51.9156975 15.0200065,51.9560315 C14.92691,52.004573 14.8066115,52.035527 14.700383,52.0446725 C14.3226035,52.080082 13.953735,51.9644735 13.731429,51.649071 C13.473948,51.2848925 13.5764245,50.6894969 13.9183255,50.4270914 C14.1270305,50.2720869 14.433522,50.2230764 14.6917065,50.2230764 C15.0598715,50.2230764 15.4646185,50.3520514 15.673089,50.6008559 C15.886484,50.854116 15.9931815,51.244793 15.9931815,51.769135 C15.9931815,52.275655 15.877104,52.662111 15.646356,52.9198265 C15.5931245,52.9770445 15.5307475,53.030745 15.473295,53.079521 C15.3576865,53.163941 15.2291805,53.2213935 15.09575,53.257272 C14.9444975,53.3015925 14.7803475,53.315428 14.6246395,53.3109725 C14.517942,53.306517 14.4112445,53.288226 14.309237,53.2617275" id="Fill-18" fill="#FEFEFE"></path><path d="M17.9995401,53.1726878 C18.0616826,53.1152353 18.1106931,53.0219043 18.1503236,52.8884738 C18.1906576,52.7594988 18.2129351,52.5913623 18.2129351,52.3913338 C18.2129351,52.2794773 18.2040241,52.1692623 18.1812776,52.0578748 C18.1461026,51.8709783 18.0485506,51.6716533 17.8529776,51.6050553 C17.7017251,51.5602658 17.4620661,51.6313193 17.3729561,51.7692053 C17.2976816,51.8850483 17.2620376,51.9952633 17.2620376,52.2443023 C17.2620376,52.6040253 17.3019026,52.8713553 17.3860881,53.0263598 C17.4707426,53.1867578 17.6843721,53.2660188 17.8126436,53.2660188 C17.8754896,53.2660188 17.9416186,53.2350648 17.9995401,53.1726878 M16.8314956,52.9374843 C16.6178661,52.6842243 16.5111686,52.2933128 16.5111686,51.7731918 C16.5111686,51.2671408 16.6267771,50.8762293 16.8575251,50.6185138 C16.9114601,50.5608268 16.9686781,50.5075953 17.0312896,50.4630403 C17.1422081,50.3783858 17.2751696,50.3164778 17.4086001,50.2810683 C17.5596181,50.2365133 17.7240026,50.2233813 17.8794761,50.2318233 C17.9864081,50.2318233 18.0928711,50.2498798 18.1948786,50.2766128 C18.3283091,50.3075668 18.4615051,50.3652538 18.5637471,50.4585848 C18.6835766,50.5655168 18.7368081,50.6806563 18.7236761,50.8004858 C18.7194551,50.8049413 18.7194551,50.8096313 18.7194551,50.8140868 L18.7194551,50.8227633 C18.6969431,50.9869133 18.5414696,51.1069773 18.3726296,51.0849343 C18.2040241,51.0626568 18.0881811,50.9074178 18.1106931,50.7383433 C18.1329706,50.5739588 18.2839886,50.4541293 18.4481386,50.4764068 C18.4127291,50.4363073 18.4127291,50.4363073 18.3859961,50.4184853 C18.3501176,50.3964423 18.3191636,50.3783858 18.2792986,50.3652538 C18.2260671,50.3434453 18.1683801,50.3251543 18.1062376,50.3164778 C17.9195756,50.2810683 17.6885931,50.2942003 17.5328851,50.4140298 C17.4350986,50.4939943 17.3640451,50.6316458 17.3110481,50.8358953 C17.2620376,51.0361583 17.2399946,51.3914258 17.2399946,51.7558388 L17.2399946,51.8182158 L17.2709486,51.7692053 C17.3199591,51.6934618 17.4041446,51.6224083 17.4798881,51.5827778 C17.5774401,51.5337673 17.6975041,51.5023443 17.7995116,51.4934333 C18.1812776,51.4580238 18.5506151,51.5780878 18.7679966,51.8890348 C19.0257121,52.2529788 18.9281601,52.8481398 18.5860246,53.1105453 C18.3770851,53.2707088 18.0659036,53.3152638 17.8126436,53.3152638 C17.4397886,53.3152638 17.0399661,53.1867578 16.8314956,52.9374843" id="Fill-19" fill="#FEFEFE"></path><path d="M19.571206,53.0620742 C19.4555975,52.9551422 19.4021315,52.8400027 19.415498,52.7199387 C19.415498,52.7152487 19.420188,52.7112622 19.420188,52.7061032 L19.420188,52.6971922 C19.442231,52.5330422 19.597939,52.4129782 19.7665445,52.4354902 C19.930929,52.4580022 20.0507585,52.6132412 20.0287155,52.7820812 C20.006438,52.9462312 19.8556545,53.0665297 19.6863455,53.0440177 C19.726914,53.0841172 19.726914,53.0841172 19.7529435,53.1017047 C20.0240255,53.2754692 20.5305455,53.2705447 20.743706,53.0393277 C20.859549,52.9152772 20.916767,52.7281462 20.916767,52.4798107 C20.916767,52.2310062 20.859549,52.0359022 20.748396,51.9066927 C20.637243,51.7777177 20.4817695,51.6982222 20.290652,51.6982222 L20.0864025,51.6982222 L20.0864025,51.6581227 L20.290652,51.6581227 C20.433228,51.6581227 20.548602,51.5821447 20.641933,51.4667707 C20.7350295,51.3471757 20.77935,51.1781012 20.77935,50.9651752 C20.77935,50.8362002 20.7528515,50.6804921 20.703841,50.5606626 C20.5572785,50.2187616 20.0198045,50.2143061 19.7529435,50.4056581 C19.726914,50.4227766 19.726914,50.4227766 19.6863455,50.4633451 C19.8556545,50.4405986 20.006438,50.5606626 20.0287155,50.7248126 C20.0507585,50.8938872 19.930929,51.0491262 19.7665445,51.0721072 C19.597939,51.0936812 19.442231,50.9740862 19.420188,50.8094672 L19.420188,50.8003217 C19.420188,50.7958662 19.415498,50.7918797 19.415498,50.7874242 C19.4021315,50.6673601 19.451142,50.5517516 19.571206,50.4452886 C19.6643025,50.3653241 19.7754555,50.3076371 19.8908295,50.2675376 C19.957662,50.2452601 20.0240255,50.2274381 20.090858,50.2187616 C20.233434,50.2007051 20.3842175,50.2007051 20.5305455,50.2143061 C20.703841,50.2274381 20.859549,50.2628476 20.992745,50.3165481 C21.1613505,50.3826771 21.294781,50.4764771 21.379201,50.5871611 C21.463621,50.7025351 21.508176,50.8272892 21.508176,50.9651752 C21.508176,51.1206487 21.4680765,51.2446992 21.383422,51.3380302 C21.2992365,51.4313612 21.1880835,51.5073392 21.050432,51.5603362 C20.913015,51.6135677 20.4995915,51.6759447 20.4995915,51.6759447 C20.579556,51.6843867 20.659286,51.7026777 20.739485,51.7158097 C20.859549,51.7380872 20.9882895,51.7688067 21.112809,51.8178172 C21.4014785,51.9292047 21.6411375,52.1196187 21.6411375,52.4798107 C21.6411375,52.7241597 21.53444,52.9241882 21.3259695,53.0702817 C21.134852,53.2037122 20.850638,53.2796902 20.477314,53.2923532 C20.348339,53.3014987 19.8556545,53.3108787 19.571206,53.0620742" id="Fill-20" fill="#FEFEFE"></path></g><g id="Group" transform="translate(79.449999, 11.900000)" fill="#39383A"><path d="M10.1107998,12.9735198 C11.7053998,12.9735198 12.3938498,12.3939198 13.3724498,11.2340198 C15.9452997,8.18971986 15.1115997,0.57966999 10.1107998,0.57966999 L7.97264986,0.57966999 L7.97264986,12.9735198 L10.1107998,12.9735198 Z M23.7002496,24.0265196 L23.7002496,24.2802696 L22.7216496,24.2802696 C21.7797996,24.2802696 20.8375996,24.3163196 19.9317997,24.3163196 C18.3368497,24.2802696 16.6697997,24.1353696 15.4020997,23.0843196 C14.1336998,21.9972196 13.5533998,20.4747197 12.8652998,19.0257197 C12.8652998,19.0257197 11.5240998,14.1330698 8.55259985,13.5534698 L7.97264986,13.5534698 L7.97264986,21.8887196 C7.97264986,24.1353696 10.1468498,23.8452196 10.1468498,23.8452196 L10.1468498,24.1353696 L-4.97379907e-15,24.1353696 L-4.97379907e-15,23.8452196 C-4.97379907e-15,23.8452196 2.21059996,24.1353696 2.21059996,21.8887196 L2.21059996,2.24671996 C2.21059996,0.0361199994 -4.97379907e-15,0.253819996 -4.97379907e-15,0.253819996 L-4.97379907e-15,6.99999989e-05 L10.1107998,6.99999989e-05 C12.7928498,6.99999989e-05 16.0177497,0.181019997 18.1919497,1.84806997 C18.6994497,2.24671996 19.1341497,2.71781995 19.5331497,3.26136994 C21.3811496,6.0879699 20.9828496,9.64011984 18.1558997,11.6690698 C16.7786497,12.6837198 14.9670497,13.2993698 12.1764998,13.4810198 L12.2128998,13.4810198 L12.3577998,13.4810198 C13.2275498,13.5534698 14.0248498,13.6623198 14.7132997,13.8425698 C16.3806997,14.3507698 17.5041997,15.2205197 18.0830997,16.4889197 L19.2065997,18.7716197 C19.2065997,18.7716197 21.2722996,22.9030196 21.7797996,23.3020196 C22.5410496,23.9901196 23.7002496,23.9901196 23.7002496,24.0265196 L23.7002496,24.0265196 Z" id="Fill-21"></path><path d="M36.0607094,23.5920996 C36.8940594,22.7947996 37.5828594,21.4903496 38.1264094,19.6783997 C38.6696093,17.9024997 38.9601093,15.5109497 38.9601093,12.6115498 C38.9601093,9.71249983 38.6696093,7.32059988 38.1264094,5.50864991 C37.5828594,3.69669994 36.8940594,2.39189996 36.0607094,1.59459997 C35.2273594,0.834049986 33.9950094,0.435049993 33.0171094,0.435049993 C32.0385095,0.435049993 30.8061595,0.834049986 29.9728095,1.59459997 C29.1391095,2.39189996 28.4506595,3.69669994 27.9067595,5.50864991 C27.3632095,7.32059988 27.0734095,9.67574984 27.0734095,12.6115498 C27.0734095,15.5109497 27.3632095,17.9024997 27.9067595,19.6783997 C28.4506595,21.4903496 29.1391095,22.7947996 29.9728095,23.5920996 C30.8061595,24.3893996 32.0385095,24.7883996 33.0171094,24.7883996 C33.9950094,24.7883996 35.2273594,24.3893996 36.0607094,23.5920996 M26.5302095,23.7369996 C24.7539596,22.7587496 23.3770596,21.3086996 22.4345096,19.4249997 C21.4566096,17.5762997 20.9848096,15.2571997 20.9848096,12.6115498 C20.9848096,9.93019983 21.4566096,7.64644987 22.4345096,5.7627499 C23.3770596,3.87799993 24.7539596,2.46434996 26.5302095,1.48609997 C28.2693595,0.507499991 30.6612595,0.000349999994 33.0171094,0.000349999994 C35.3722594,0.000349999994 37.7641594,0.507499991 39.5033093,1.48609997 C41.2792093,2.46434996 42.6564593,3.87799993 43.6347093,5.7627499 C44.5769092,7.64644987 45.0840592,9.93019983 45.0840592,12.6115498 C45.0840592,15.2571997 44.5769092,17.5762997 43.6347093,19.4249997 C42.6564593,21.3086996 41.2792093,22.7587496 39.5033093,23.7369996 C37.7641594,24.6791996 35.3722594,25.1866996 33.0171094,25.1866996 C30.6612595,25.1866996 28.2693595,24.6791996 26.5302095,23.7369996" id="Fill-22"></path><path d="M49.0129142,22.2512496 C47.2009642,20.6926996 46.2584142,18.4099997 46.2584142,15.5466497 L46.2584142,2.24699996 C46.2584142,-1.74082967e-14 44.0845642,0.254099996 44.0845642,0.254099996 L44.0845642,-1.74082967e-14 L54.2314141,-1.74082967e-14 L54.2314141,0.254099996 C54.2314141,0.254099996 52.0208141,-1.74082967e-14 52.0208141,2.24699996 L52.0208141,15.5466497 C52.0208141,18.5545497 52.5279641,20.7651496 53.5065641,22.0699496 C54.5212141,23.3750996 55.970564,24.0631996 57.855664,24.0631996 C59.014864,24.0631996 60.102314,23.7009496 61.153014,23.0121496 C62.1676639,22.3240496 63.0013639,21.3090496 63.6534139,20.0042497 C64.2694139,18.7361997 64.5963139,17.2504497 64.5963139,15.5466497 L64.5963139,2.46504996 C64.5963139,0.0360499994 61.6605139,0.254099996 61.6605139,0.254099996 L61.6605139,-1.74082967e-14 L68.0749638,-1.74082967e-14 L68.0749638,0.290849995 C68.0749638,0.290849995 65.3929139,-1.74082967e-14 65.3929139,2.46504996 L65.3929139,15.5466497 C65.3929139,17.3953497 65.0310139,19.0259997 64.3058139,20.4032497 C63.5813139,21.7437496 62.6023639,22.8308496 61.370364,23.5560496 C60.138364,24.2805496 58.689014,24.6427996 57.130114,24.6427996 C53.5426141,24.6427996 50.8248641,23.8458496 49.0129142,22.2512496" id="Fill-23"></path><path d="M75.6230287,11.1612898 L75.6230287,23.5554896 L78.1598287,23.5554896 C79.7183786,23.5554896 80.9867786,23.0119396 81.9653786,21.9608896 C82.9436286,20.9101896 83.4514786,19.4604897 83.4514786,17.6481897 C83.4514786,15.8362397 82.9436286,13.8076398 81.9653786,12.7562398 C80.9867786,11.7055398 79.7183786,11.1612898 78.1598287,11.1612898 L75.6230287,11.1612898 Z M75.6230287,0.58008999 L75.6230287,10.5820398 L77.4349787,10.5820398 C78.0509787,10.5820398 78.7765287,10.4367898 79.3561286,10.2558398 C80.2619286,9.92928983 80.9507286,9.34968984 81.4218286,8.58843985 C81.9289786,7.82823987 82.1459786,6.92208988 82.1459786,5.9791899 C82.1459786,4.92848992 81.9289786,3.98593993 81.4942786,3.18968995 C81.0592286,2.35598996 80.4796286,1.73893997 79.7544286,1.26818998 C79.0295787,0.833489986 78.2686787,0.58008999 77.4349787,0.58008999 L75.6230287,0.58008999 Z M67.6867788,24.1354396 L67.6867788,23.8816896 C67.6867788,23.8816896 69.8977288,24.1354396 69.8977288,22.4683896 L69.8977288,1.66683997 C69.8977288,0.000139999998 67.6867788,0.289589995 67.6867788,0.289589995 L67.6867788,0.000139999998 L77.4349787,0.000139999998 C78.5217287,0.000139999998 79.6095286,0.0365399994 80.6966286,0.180739997 C82.2548286,0.362389994 84.1392286,0.760689987 85.5164785,1.70323997 C87.2195785,2.86278995 87.9451285,5.25468991 87.1471285,7.10268988 C86.2413285,9.27758984 83.9222286,10.1473398 81.7840786,10.5452898 C81.6391786,10.5820398 81.4582286,10.6177398 81.3133286,10.6177398 C80.8054786,10.7269398 80.2979786,10.7626398 79.7908286,10.7997398 C79.6819786,10.8354398 79.5731286,10.8354398 79.4642786,10.8354398 C79.3925286,10.8354398 79.3561286,10.8718398 79.3197286,10.8718398 C80.5153286,11.0524398 81.8929286,11.1612898 83.0521286,11.4157398 C85.9879285,12.0681398 89.3577285,14.1695398 89.3577285,17.6481897 C89.3577285,19.6774897 88.4883285,21.2727896 86.7484785,22.3959396 C85.0093286,23.5554896 82.1099286,24.1354396 78.1598287,24.1354396 L67.6867788,24.1354396 Z" id="Fill-24"></path><path d="M89.6114085,24.1355796 L89.6114085,23.8814796 C89.6114085,23.8814796 91.7856084,24.1355796 91.7856084,21.8885796 L91.7856084,19.5694797 L91.7856084,6.1602799 L91.7856084,2.24727996 C91.7856084,0.000279999995 89.6114085,0.290079995 89.6114085,0.290079995 L89.6114085,0.000279999995 L108.890458,0.000279999995 L108.890458,5.39972991 L108.528208,5.39972991 C108.528208,0.181229997 105.411808,0.57952999 105.411808,0.57952999 L97.5476583,0.57952999 L97.5476583,11.8866298 L101.968858,11.8866298 C102.548808,11.8141798 104.034558,11.4158798 104.034558,8.33482986 L104.396808,8.33482986 L104.396808,15.9812797 L104.034558,15.9812797 C104.034558,12.9005798 102.548808,12.5029798 101.968858,12.4662298 L97.5476583,12.4662298 L97.5476583,23.5556296 L106.172708,23.5556296 C106.172708,23.5556296 109.253058,23.9539296 109.253058,18.7361297 L109.651708,18.7361297 L109.651708,24.1355796 L89.6114085,24.1355796 Z" id="Fill-25"></path><path d="M120.487253,12.9735198 C122.081853,12.9735198 122.770303,12.3939198 123.749253,11.2340198 C126.322453,8.18971986 125.488053,0.57966999 120.487253,0.57966999 L118.349103,0.57966999 L118.349103,12.9735198 L120.487253,12.9735198 Z M134.076703,24.0265196 L134.076703,24.2802696 L133.098453,24.2802696 C132.155903,24.2802696 131.214053,24.3163196 130.308253,24.3163196 C128.713653,24.2802696 127.046253,24.1353696 125.778553,23.0843196 C124.510153,21.9972196 123.929853,20.4747197 123.241753,19.0257197 C123.241753,19.0257197 121.900553,14.1330698 118.929403,13.5534698 L118.349103,13.5534698 L118.349103,21.8887196 C118.349103,24.1353696 120.523303,23.8452196 120.523303,23.8452196 L120.523303,24.1353696 L110.376453,24.1353696 L110.376453,23.8452196 C110.376453,23.8452196 112.587053,24.1353696 112.587053,21.8887196 L112.587053,2.24671996 C112.587053,0.0361199994 110.376453,0.253819996 110.376453,0.253819996 L110.376453,6.99999989e-05 L120.487253,6.99999989e-05 C123.168953,6.99999989e-05 126.394203,0.181019997 128.568753,1.84806997 C129.075903,2.24671996 129.510953,2.71781995 129.909603,3.26136994 C131.757953,6.0879699 131.359303,9.64011984 128.532353,11.6690698 C127.155103,12.6837198 125.343153,13.2993698 122.552603,13.4810198 L122.589353,13.4810198 L122.734253,13.4810198 C123.604003,13.5534698 124.401303,13.6623198 125.089753,13.8425698 C126.757153,14.3507698 127.879953,15.2205197 128.460253,16.4889197 L129.583053,18.7716197 C129.583053,18.7716197 131.649103,22.9030196 132.155903,23.3020196 C132.917503,23.9901196 134.076703,23.9901196 134.076703,24.0265196 L134.076703,24.0265196 Z" id="Fill-26"></path><path d="M137.240773,24.1355796 L137.240773,23.8814796 C137.240773,23.8814796 138.073773,23.9539296 138.689773,23.5195796 L138.725823,23.5195796 C138.762573,23.4831796 138.834673,23.4467796 138.871073,23.4107296 C138.871073,23.3746796 138.907123,23.3746796 138.907123,23.3746796 L139.016323,23.2297796 C139.052723,23.1933796 139.052723,23.1933796 139.088773,23.1573296 C139.124823,23.1209296 139.124823,23.0848796 139.161573,23.0120796 L139.233673,22.9389296 C139.233673,22.8668296 139.270073,22.8304296 139.270073,22.7943796 C139.306473,22.7219296 139.306473,22.6855296 139.342523,22.6494796 L139.378923,22.5042296 C139.378923,22.4321296 139.414973,22.3593296 139.414973,22.3236296 L139.414973,22.1423296 C139.414973,22.0695296 139.451373,21.9974296 139.451373,21.8885796 L139.451373,19.5694797 L139.451373,12.4662298 L139.451373,11.8866298 L139.451373,6.1602799 L139.451373,2.24727996 C139.451373,1.34077998 139.088773,0.869329985 138.653723,0.57952999 L135.356023,0.57952999 C135.356023,0.57952999 132.239973,0.181229997 132.239973,5.39972991 L131.877023,5.39972991 L131.877023,0.000279999995 L152.751022,0.000279999995 L152.751022,5.39972991 L152.388072,5.39972991 C152.388072,0.181229997 149.272022,0.57952999 149.272022,0.57952999 L145.974323,0.57952999 C145.538923,0.869329985 145.177023,1.34077998 145.177023,2.24727996 L145.177023,21.8885796 C145.177023,21.9974296 145.212723,22.0695296 145.212723,22.1423296 L145.212723,22.3236296 C145.212723,22.3593296 145.249473,22.4321296 145.249473,22.5042296 C145.285523,22.5406296 145.285523,22.6127296 145.285523,22.6494796 C145.321573,22.6855296 145.321573,22.7219296 145.357973,22.7943796 C145.357973,22.8304296 145.394373,22.8668296 145.394373,22.9389296 L145.466823,23.0120796 C145.502873,23.0848796 145.502873,23.1209296 145.538923,23.1573296 L145.611723,23.2297796 C145.647773,23.2661796 145.684523,23.3382796 145.720223,23.3746796 C145.720223,23.3746796 145.756273,23.3746796 145.756273,23.4107296 L145.901523,23.5195796 L145.938273,23.5195796 C146.554273,23.9539296 147.387622,23.8814796 147.387622,23.8814796 L147.387622,24.1355796 L137.240773,24.1355796 Z" id="Fill-27"></path><path d="M165.294462,23.5920996 C166.127812,22.7947996 166.816962,21.4903496 167.360512,19.6783997 C167.904062,17.9024997 168.193512,15.5109497 168.193512,12.6115498 C168.193512,9.71249983 167.904062,7.32059988 167.360512,5.50864991 C166.816962,3.69669994 166.127812,2.39189996 165.294462,1.59459997 C164.461462,0.834049986 163.228762,0.435049993 162.250512,0.435049993 C161.272262,0.435049993 160.039912,0.834049986 159.205862,1.59459997 C158.373212,2.39189996 157.684412,3.69669994 157.140862,5.50864991 C156.596612,7.32059988 156.307162,9.67574984 156.307162,12.6115498 C156.307162,15.5109497 156.596612,17.9024997 157.140862,19.6783997 C157.684412,21.4903496 158.373212,22.7947996 159.205862,23.5920996 C160.039912,24.3893996 161.272262,24.7883996 162.250512,24.7883996 C163.228762,24.7883996 164.461462,24.3893996 165.294462,23.5920996 M155.763962,23.7369996 C153.988062,22.7587496 152.611162,21.3086996 151.668962,19.4249997 C150.690362,17.5762997 150.218912,15.2571997 150.218912,12.6115498 C150.218912,9.93019983 150.690362,7.64644987 151.668962,5.7627499 C152.611162,3.87799993 153.988062,2.46434996 155.763962,1.48609997 C157.503462,0.507499991 159.895362,0.000349999994 162.250512,0.000349999994 C164.606012,0.000349999994 166.997912,0.507499991 168.737762,1.48609997 C170.512962,2.46434996 171.890212,3.87799993 172.868462,5.7627499 C173.810662,7.64644987 174.318162,9.93019983 174.318162,12.6115498 C174.318162,15.2571997 173.810662,17.5762997 172.868462,19.4249997 C171.890212,21.3086996 170.512962,22.7587496 168.737762,23.7369996 C166.997912,24.6791996 164.606012,25.1866996 162.250512,25.1866996 C159.895362,25.1866996 157.503462,24.6791996 155.763962,23.7369996" id="Fill-28"></path><path d="M4.91053492,32.7635344 C5.6392349,32.7635344 6.0837349,32.2283845 6.0837349,31.5455345 C6.0837349,30.8500845 5.6392349,30.3716345 4.91053492,30.3716345 L3.37263494,30.3716345 L3.37263494,32.7635344 L4.91053492,32.7635344 Z M5.09288491,36.2264344 C5.7876349,36.2264344 6.32243489,35.6912844 6.32243489,34.9846344 C6.32243489,34.2898844 5.6619849,33.7886844 4.92138492,33.7886844 L3.36143494,33.7886844 L3.36143494,36.2264344 L5.09288491,36.2264344 Z M2.21063496,29.5172845 C2.21063496,29.4031845 2.30198496,29.3006345 2.42693496,29.3006345 L4.97843492,29.3006345 C6.35673489,29.3006345 7.34793487,30.2120345 7.34793487,31.4076345 C7.34793487,32.2850845 6.69868489,32.9122844 6.1635349,33.2195844 C6.76728488,33.4701844 7.58733487,34.0280844 7.58733487,35.0759844 C7.58733487,36.3517344 6.53943489,37.2743344 5.10373491,37.2743344 L2.42693496,37.2743344 C2.30198496,37.2743344 2.21063496,37.1717844 2.21063496,37.0583844 L2.21063496,29.5172845 Z" id="Fill-29"></path><path d="M12.6120748,29.5171445 C12.6120748,29.4033945 12.7146248,29.3004945 12.8283748,29.3004945 L13.5913748,29.3004945 C13.7170248,29.3004945 13.8083748,29.4033945 13.8083748,29.5171445 L13.8083748,34.2214944 C13.8083748,35.3607444 14.5370748,36.2493944 15.6987247,36.2493944 C16.8726247,36.2493944 17.6121747,35.3722944 17.6121747,34.2445944 L17.6121747,29.5171445 C17.6121747,29.4033945 17.7031747,29.3004945 17.8288247,29.3004945 L18.5921747,29.3004945 C18.7059247,29.3004945 18.8081247,29.4033945 18.8081247,29.5171445 L18.8081247,34.3016444 C18.8081247,36.0330944 17.4987747,37.3879444 15.6987247,37.3879444 C13.9102248,37.3879444 12.6120748,36.0330944 12.6120748,34.3016444 L12.6120748,29.5171445 Z" id="Fill-30"></path><path d="M24.3350096,29.5171445 C24.3350096,29.4033945 24.4372096,29.3004945 24.5509596,29.3004945 L25.3031096,29.3004945 C25.4165096,29.3004945 25.5194096,29.4033945 25.5194096,29.5171445 L25.5194096,37.0578944 C25.5194096,37.1719944 25.4165096,37.2745444 25.3031096,37.2745444 L24.5509596,37.2745444 C24.4372096,37.2745444 24.3350096,37.1719944 24.3350096,37.0578944 L24.3350096,29.5171445 Z" id="Fill-31"></path><path d="M31.1477245,29.5171445 C31.1477245,29.4033945 31.2387245,29.3004945 31.3636745,29.3004945 L32.1158245,29.3004945 C32.2295745,29.3004945 32.3321244,29.4033945 32.3321244,29.5171445 L32.3321244,36.2147444 L35.4191244,36.2147444 C35.5444244,36.2147444 35.6357744,36.3176444 35.6357744,36.4317444 L35.6357744,37.0578944 C35.6357744,37.1719944 35.5444244,37.2745444 35.4191244,37.2745444 L31.3636745,37.2745444 C31.2387245,37.2745444 31.1477245,37.1719944 31.1477245,37.0578944 L31.1477245,29.5171445 Z" id="Fill-32"></path><path d="M42.9151093,36.1924494 C44.5891592,36.1924494 45.8085592,34.9614994 45.8085592,33.2769494 C45.8085592,31.6018495 44.5891592,30.3827995 42.9151093,30.3827995 L41.4111593,30.3827995 L41.4111593,36.1924494 L42.9151093,36.1924494 Z M40.2495093,29.5168995 C40.2495093,29.4031495 40.3408593,29.3005995 40.4546093,29.3005995 L43.0747093,29.3005995 C45.2727092,29.3005995 47.0724092,31.0894495 47.0724092,33.2769494 C47.0724092,35.4857994 45.2727092,37.2742994 43.0747093,37.2742994 L40.4546093,37.2742994 C40.3408593,37.2742994 40.2495093,37.1717494 40.2495093,37.0579994 L40.2495093,29.5168995 Z" id="Fill-33"></path><path d="M52.1326741,29.5171445 C52.1326741,29.4033945 52.2348741,29.3004945 52.3489741,29.3004945 L53.1007741,29.3004945 C53.2141741,29.3004945 53.3170741,29.4033945 53.3170741,29.5171445 L53.3170741,37.0578944 C53.3170741,37.1719944 53.2141741,37.2745444 53.1007741,37.2745444 L52.3489741,37.2745444 C52.2348741,37.2745444 52.1326741,37.1719944 52.1326741,37.0578944 L52.1326741,29.5171445 Z" id="Fill-34"></path><path d="M58.944864,29.3920545 C58.944864,29.2783045 59.047064,29.1869545 59.160814,29.1869545 L59.445364,29.1869545 L64.3894639,34.9049044 L64.4006639,34.9049044 L64.4006639,29.5173545 C64.4006639,29.4029045 64.4916639,29.3003545 64.6173139,29.3003545 L65.3460139,29.3003545 C65.4597639,29.3003545 65.5626639,29.4029045 65.5626639,29.5173545 L65.5626639,37.1834044 C65.5626639,37.2968044 65.4597639,37.3881544 65.3460139,37.3881544 L65.0499139,37.3881544 L60.106164,31.5109545 L60.094964,31.5109545 L60.094964,37.0577544 C60.094964,37.1718544 60.003614,37.2747544 59.879014,37.2747544 L59.160814,37.2747544 C59.047064,37.2747544 58.944864,37.1718544 58.944864,37.0577544 L58.944864,29.3920545 Z" id="Fill-35"></path><path d="M74.2559987,29.1869895 C75.3497487,29.1869895 76.2488987,29.5856395 77.0241487,30.2457395 C77.1154987,30.3370895 77.1263487,30.4739395 77.0349987,30.5652895 C76.8641987,30.7476395 76.6933987,30.9180895 76.5222487,31.1004395 C76.4315987,31.2033395 76.3405987,31.1917895 76.2261487,31.0892395 C75.6909987,30.6219895 74.9846987,30.3146895 74.2899487,30.3146895 C72.6722488,30.3146895 71.4307988,31.6814395 71.4307988,33.2763894 C71.4307988,34.8597894 72.6722488,36.2261894 74.2899487,36.2261894 C75.2349487,36.2261894 75.8848987,35.8845894 75.9982987,35.8390894 L75.9982987,34.5633394 L74.8821487,34.5633394 C74.7564987,34.5633394 74.6658487,34.4723394 74.6658487,34.3585894 L74.6658487,33.6977894 C74.6658487,33.5721394 74.7564987,33.4814894 74.8821487,33.4814894 L76.9558987,33.4814894 C77.0692987,33.4814894 77.1602987,33.5840394 77.1602987,33.6977894 C77.1602987,34.6091894 77.1714987,35.5433394 77.1714987,36.4543894 C77.1714987,36.5110894 77.1263487,36.6020894 77.0808487,36.6363894 C77.0808487,36.6363894 75.9072987,37.3878394 74.2559987,37.3878394 C71.9886988,37.3878394 70.1550488,35.5772894 70.1550488,33.2991394 C70.1550488,31.0206395 71.9886988,29.1869895 74.2559987,29.1869895" id="Fill-36"></path><path d="M88.0290585,29.3578945 C88.0518085,29.2668945 88.1428085,29.1874445 88.2341585,29.1874445 L88.4161585,29.1874445 C88.4847585,29.1874445 88.5873085,29.2441445 88.6104085,29.3120445 L90.9907585,35.1325444 L91.0362584,35.1325444 L93.4054084,29.3120445 C93.4281584,29.2441445 93.5191584,29.1874445 93.5996584,29.1874445 L93.7813084,29.1874445 C93.8726584,29.1874445 93.9640084,29.2668945 93.9867584,29.3578945 L95.3878084,37.0127444 C95.4217584,37.1716444 95.3416084,37.2745444 95.1823584,37.2745444 L94.4424584,37.2745444 C94.3392084,37.2745444 94.2485584,37.1950944 94.2258084,37.1149444 L93.3826584,32.0231445 L93.3487084,32.0231445 L91.2984084,37.2629944 C91.2753084,37.3312444 91.2067084,37.3879444 91.1048584,37.3879444 L90.8997585,37.3879444 C90.8087585,37.3879444 90.7289585,37.3312444 90.7062085,37.2629944 L88.6443585,32.0231445 L88.5981585,32.0231445 L87.7784585,37.1149444 C87.7672585,37.1950944 87.6643585,37.2745444 87.5733585,37.2745444 L86.8327585,37.2745444 C86.6738585,37.2745444 86.5940585,37.1716444 86.6168085,37.0127444 L88.0290585,29.3578945 Z" id="Fill-37"></path><path d="M104.570653,34.5630944 L103.169603,31.4424945 L103.112553,31.4424945 L101.723403,34.5630944 L104.570653,34.5630944 Z M99.4109533,36.9780944 L102.907803,29.3116945 C102.941753,29.2437945 103.043953,29.1870945 103.101003,29.1870945 L103.215453,29.1870945 C103.272503,29.1870945 103.374353,29.2437945 103.408653,29.3116945 L106.883103,36.9780944 C106.951703,37.1264944 106.860353,37.2741944 106.689203,37.2741944 L105.971703,37.2741944 C105.834853,37.2741944 105.755053,37.2059444 105.709553,37.1040944 L105.003603,35.5434444 L101.278553,35.5434444 C101.051053,36.0670444 100.812003,36.5797944 100.584153,37.1040944 C100.549503,37.1831944 100.458503,37.2741944 100.322003,37.2741944 L99.6045033,37.2741944 C99.4337033,37.2741944 99.3423533,37.1264944 99.4109533,36.9780944 L99.4109533,36.9780944 Z" id="Fill-38"></path><path d="M112.113083,30.3716345 L110.256333,30.3716345 C110.131033,30.3716345 110.039683,30.2694345 110.039683,30.1549845 L110.039683,29.5172845 C110.039683,29.4028345 110.131033,29.3002845 110.256333,29.3002845 L115.154233,29.3002845 C115.279533,29.3002845 115.370533,29.4028345 115.370533,29.5172845 L115.370533,30.1549845 C115.370533,30.2694345 115.279533,30.3716345 115.154233,30.3716345 L113.297483,30.3716345 L113.297483,37.0580344 C113.297483,37.1717844 113.194933,37.2746844 113.081533,37.2746844 L112.329383,37.2746844 C112.215283,37.2746844 112.113083,37.1717844 112.113083,37.0580344 L112.113083,30.3716345 Z" id="Fill-39"></path><path d="M120.019688,29.5171445 C120.019688,29.4033945 120.110688,29.3004945 120.235638,29.3004945 L124.791588,29.3004945 C124.916888,29.3004945 125.008588,29.4033945 125.008588,29.5171445 L125.008588,30.1551945 C125.008588,30.2692945 124.916888,30.3714945 124.791588,30.3714945 L121.192888,30.3714945 L121.192888,32.6951444 L124.234038,32.6951444 C124.347788,32.6951444 124.450688,32.7976944 124.450688,32.9121444 L124.450688,33.5498444 C124.450688,33.6744444 124.347788,33.7661444 124.234038,33.7661444 L121.192888,33.7661444 L121.192888,36.2147444 L124.791588,36.2147444 C124.916888,36.2147444 125.008588,36.3176444 125.008588,36.4317444 L125.008588,37.0578944 C125.008588,37.1719944 124.916888,37.2745444 124.791588,37.2745444 L120.235638,37.2745444 C120.110688,37.2745444 120.019688,37.1719944 120.019688,37.0578944 L120.019688,29.5171445 Z" id="Fill-40"></path><path d="M133.370613,33.1736994 C134.111563,33.1736994 134.760813,32.5475494 134.760813,31.7617995 C134.760813,31.0208495 134.111563,30.4055495 133.370613,30.4055495 L131.343413,30.4055495 L131.343413,33.1736994 L133.370613,33.1736994 Z M130.147463,29.5172495 C130.147463,29.4027995 130.238813,29.3005995 130.364113,29.3005995 L133.462663,29.3005995 C134.828713,29.3005995 135.945213,30.3824495 135.945213,31.7383495 C135.945213,32.7865994 135.250813,33.6521494 134.259263,34.0507994 L135.819913,36.9442494 C135.899363,37.0922994 135.819913,37.2746494 135.626013,37.2746494 L134.738063,37.2746494 C134.646713,37.2746494 134.578463,37.2175994 134.555713,37.1720994 L133.040563,34.1536994 L131.320663,34.1536994 L131.320663,37.0579994 C131.320663,37.1720994 131.217763,37.2746494 131.104363,37.2746494 L130.364113,37.2746494 C130.238813,37.2746494 130.147463,37.1720994 130.147463,37.0579994 L130.147463,29.5172495 Z" id="Fill-41"></path><path d="M141.141033,29.5171445 C141.141033,29.4033945 141.243233,29.3004945 141.357683,29.3004945 L142.109483,29.3004945 C142.222883,29.3004945 142.325433,29.4033945 142.325433,29.5171445 L142.325433,37.0578944 C142.325433,37.1719944 142.222883,37.2745444 142.109483,37.2745444 L141.357683,37.2745444 C141.243233,37.2745444 141.141033,37.1719944 141.141033,37.0578944 L141.141033,29.5171445 Z" id="Fill-42"></path><path d="M152.042657,34.5630944 L150.641607,31.4424945 L150.584557,31.4424945 L149.195057,34.5630944 L152.042657,34.5630944 Z M146.882607,36.9780944 L150.379457,29.3116945 C150.413757,29.2437945 150.515957,29.1870945 150.573007,29.1870945 L150.686757,29.1870945 C150.744157,29.1870945 150.846007,29.2437945 150.880657,29.3116945 L154.354757,36.9780944 C154.423707,37.1264944 154.332007,37.2741944 154.161207,37.2741944 L153.443707,37.2741944 C153.306857,37.2741944 153.227057,37.2059444 153.182257,37.1040944 L152.475257,35.5434444 L148.750207,35.5434444 C148.522707,36.0670444 148.283657,36.5797944 148.055107,37.1040944 C148.021507,37.1831944 147.930507,37.2741944 147.794007,37.2741944 L147.076157,37.2741944 C146.905707,37.2741944 146.814007,37.1264944 146.882607,36.9780944 L146.882607,36.9780944 Z" id="Fill-43"></path><path d="M158.913087,29.5171445 C158.913087,29.4033945 159.004087,29.3004945 159.129737,29.3004945 L159.881537,29.3004945 C159.994937,29.3004945 160.097837,29.4033945 160.097837,29.5171445 L160.097837,36.2147444 L163.184487,36.2147444 C163.310137,36.2147444 163.401137,36.3176444 163.401137,36.4317444 L163.401137,37.0578944 C163.401137,37.1719944 163.310137,37.2745444 163.184487,37.2745444 L159.129737,37.2745444 C159.004087,37.2745444 158.913087,37.1719944 158.913087,37.0578944 L158.913087,29.5171445 Z" id="Fill-44"></path><path d="M167.503487,36.1237444 C167.605687,35.9753444 167.696687,35.8048944 167.799237,35.6568444 C167.901087,35.5084444 168.061387,35.4636444 168.186337,35.5654944 C168.254587,35.6225444 169.131687,36.3512444 170.009137,36.3512444 C170.794887,36.3512444 171.296087,35.8731444 171.296087,35.2924944 C171.296087,34.6096444 170.703887,34.1759944 169.576187,33.7090944 C168.414537,33.2194444 167.503487,32.6153444 167.503487,31.2940945 C167.503487,30.4054445 168.186337,29.1870945 169.997587,29.1870945 C171.136487,29.1870945 171.991187,29.7792945 172.104587,29.8590945 C172.196287,29.9161445 172.287287,30.0757445 172.173537,30.2458445 C172.082187,30.3830445 171.979287,30.5426445 171.888287,30.6787945 C171.797637,30.8271945 171.649237,30.8954445 171.489637,30.7928945 C171.410187,30.7477445 170.612187,30.2234445 169.952087,30.2234445 C168.995187,30.2234445 168.664787,30.8271945 168.664787,31.2482445 C168.664787,31.8981945 169.166337,32.2968444 170.111687,32.6842944 C171.432587,33.2194444 172.560637,33.8455944 172.560637,35.2357944 C172.560637,36.4201944 171.501537,37.3879444 170.020337,37.3879444 C168.630837,37.3879444 167.753737,36.6588944 167.571037,36.4887944 C167.469187,36.3970944 167.389387,36.3179944 167.503487,36.1237444" id="Fill-45"></path></g></g></g></svg> 